<?xml version="1.0" encoding="utf-8"?>
<!-- Generator: Adobe Illustrator 13.0.2, SVG Export Plug-In . SVG Version: 6.00 Build 14948)  -->
<!DOCTYPE svg PUBLIC "-//W3C//DTD SVG 1.1 Tiny//EN" "http://www.w3.org/Graphics/SVG/1.1/DTD/svg11-tiny.dtd">
<svg version="1.1" baseProfile="tiny" id="Layer_1" xmlns="http://www.w3.org/2000/svg" xmlns:xlink="http://www.w3.org/1999/xlink"
	 x="0px" y="0px" width="160px" height="160px" viewBox="0 0 160 160" xml:space="preserve">
<g>
	<g>
		<path fill="#666666" d="M152.449,146.024c0,0.989-0.811,1.8-1.799,1.8H9.351c-0.99,0-1.801-0.811-1.801-1.8v-32.4
			c0-0.99,0.811-1.8,1.801-1.8h141.3c0.988,0,1.799,0.81,1.799,1.8V146.024z"/>
		<g>
			<polygon fill="#FFFFFF" points="17.45,120.824 17.45,125.324 20.15,125.324 20.15,127.124 23.751,127.124 23.751,125.324 
				26.45,125.324 26.45,120.824 			"/>
			<polygon fill="#FFFFFF" points="17.45,133.424 17.45,137.924 20.15,137.924 20.15,139.725 23.751,139.725 23.751,137.924 
				26.45,137.924 26.45,133.424 			"/>
			<polygon fill="#FFFFFF" points="29.15,120.824 29.15,125.324 31.851,125.324 31.851,127.124 35.45,127.124 35.45,125.324 
				38.15,125.324 38.15,120.824 			"/>
			<polygon fill="#FFFFFF" points="29.15,133.424 29.15,137.924 31.851,137.924 31.851,139.725 35.45,139.725 35.45,137.924 
				38.15,137.924 38.15,133.424 			"/>
			<polygon fill="#FFFFFF" points="40.851,120.824 40.851,125.324 43.55,125.324 43.55,127.124 47.15,127.124 47.15,125.324 
				49.851,125.324 49.851,120.824 			"/>
			<polygon fill="#FFFFFF" points="40.851,133.424 40.851,137.924 43.55,137.924 43.55,139.725 47.15,139.725 47.15,137.924 
				49.851,137.924 49.851,133.424 			"/>
			<polygon fill="#FFFFFF" points="52.55,120.824 52.55,125.324 55.251,125.324 55.251,127.124 58.851,127.124 58.851,125.324 
				61.55,125.324 61.55,120.824 			"/>
			<polygon fill="#FFFFFF" points="52.55,133.424 52.55,137.924 55.251,137.924 55.251,139.725 58.851,139.725 58.851,137.924 
				61.55,137.924 61.55,133.424 			"/>
			<polygon fill="#FFFFFF" points="64.251,120.824 64.251,125.324 66.95,125.324 66.95,127.124 70.55,127.124 70.55,125.324 
				73.251,125.324 73.251,120.824 			"/>
			<polygon fill="#FFFFFF" points="64.251,133.424 64.251,137.924 66.95,137.924 66.95,139.725 70.55,139.725 70.55,137.924 
				73.251,137.924 73.251,133.424 			"/>
		</g>
		<path fill="#FFFFFF" d="M144.881,137.475c0,1.485-1.215,2.699-2.701,2.699H87.282c-1.486,0-2.701-1.214-2.701-2.699v-15.3
			c0-1.486,1.215-2.701,2.701-2.701h54.898c1.486,0,2.701,1.215,2.701,2.701V137.475z"/>
		<g>
			<rect x="92.23" y="126.61" fill="#666666" width="4.822" height="1.606"/>
			<rect x="92.23" y="131.432" fill="#666666" width="4.822" height="1.606"/>
			<rect x="100.266" y="126.61" fill="#666666" width="4.822" height="1.606"/>
			<rect x="100.266" y="131.432" fill="#666666" width="4.822" height="1.606"/>
			<rect x="108.303" y="126.61" fill="#666666" width="4.818" height="1.606"/>
			<rect x="108.303" y="131.432" fill="#666666" width="4.818" height="1.606"/>
			<rect x="116.338" y="126.61" fill="#666666" width="4.82" height="1.606"/>
			<rect x="116.338" y="131.432" fill="#666666" width="4.82" height="1.606"/>
			<rect x="124.371" y="126.61" fill="#666666" width="4.822" height="1.606"/>
			<rect x="124.371" y="131.432" fill="#666666" width="4.822" height="1.606"/>
			<rect x="132.408" y="126.61" fill="#666666" width="4.822" height="1.606"/>
			<rect x="132.408" y="131.432" fill="#666666" width="4.822" height="1.606"/>
		</g>
	</g>
	<g>
		<path fill="#666666" d="M74.038,108.188c0,0-17.88,1.753-25.218-7.651c-7.335-9.406-8.479-17.284-8.022-22.75
			c0.459-5.464-8.251-13.559-8.251-13.559l15.128,5.466c0,0,0.688-4.808-0.688-10.496c-1.376-5.683-3.896-9.404-3.896-9.404
			s5.5,1.094,8.022,2.847c2.523,1.749,5.503,4.591,5.503,4.591s1.604-7.438,1.147-11.81c-0.463-4.374-4.358-10.718-4.358-10.718
			s5.734-0.219,8.941,1.313c3.208,1.528,7.105,5.683,7.105,5.683s-0.918-9.837,0.229-14.646c1.147-4.814,7.569-14.877,7.569-14.877
			s0.913,7.219,1.833,11.152c0.915,3.938,5.271,10.938,6.42,16.844c1.143,5.905,1.143,12.026,1.143,12.026l9.63-15.528
			c0,0,2.064,7.001,2.293,12.464c0.229,5.47,1.604,12.909,1.604,12.909s3.896-1.973,5.959-5.25c2.062-3.279,4.125-8.092,4.125-8.092
			s2.295,6.121,2.295,11.156c0,5.027-2.521,11.151-2.521,11.151s4.354-1.09,8.025-1.749c3.666-0.659,9.396-1.314,9.396-1.314
			s-3.895,3.063-6.189,6.565c-2.295,3.499-3.898,11.81-7.336,21.866c-9.168,12.905-30.03,11.81-30.03,11.81s9.397-6.56,12.38-10.057
			c2.977-3.502,2.748-7.22,2.748-7.22s-3.207,1.093-4.584,1.745c-1.375,0.661-3.666,2.411-3.666,2.411s1.376-5.247,3.435-8.969
			c2.066-3.718,3.211-9.845,3.211-9.845s-1.832,0.442-4.586,1.757c-2.748,1.307-3.894,3.715-3.894,3.715s0.459-5.688,0.459-8.529
			c0-2.844-0.688-6.125-0.688-6.125s-2.523,0.875-3.671,2.189c-1.145,1.311-2.979,4.593-2.979,4.593s-0.229-2.844-1.376-5.907
			c-1.147-3.061-3.207-6.121-3.207-6.121s-2.295,2.402-2.752,4.592c-0.457,2.185-0.689,5.683-0.689,5.683s-1.376-2.18-2.521-3.715
			c-1.145-1.531-3.666-3.499-3.666-3.499s-1.376,4.808-1.376,8.095c0,3.273,2.523,12.899,2.523,12.899s-2.752-1.528-4.128-3.499
			c-1.375-1.967-5.729-3.716-5.729-3.716s-0.463,3.277-0.463,5.248c0,1.967,0.691,7.653,0.691,7.653l-4.128-0.875
			c0,0,0.917,4.593,5.73,8.972C65.789,104.033,74.038,108.188,74.038,108.188z"/>
	</g>
</g>
</svg>
