<?xml version="1.0" encoding="utf-8"?>
<!-- Generator: Adobe Illustrator 13.0.2, SVG Export Plug-In . SVG Version: 6.00 Build 14948)  -->
<!DOCTYPE svg PUBLIC "-//W3C//DTD SVG 1.1 Tiny//EN" "http://www.w3.org/Graphics/SVG/1.1/DTD/svg11-tiny.dtd">
<svg version="1.1" baseProfile="tiny" id="Layer_1" xmlns="http://www.w3.org/2000/svg" xmlns:xlink="http://www.w3.org/1999/xlink"
	 x="0px" y="0px" width="144.9px" height="135.647px" viewBox="0 0 144.9 135.647" xml:space="preserve">
<polygon fill="#FFFFFF" points="66.488,96.011 52.381,89.14 43.381,77.14 45.381,72.14 50.381,59.14 62.381,41.14 76.381,44.14 
	86.381,51.14 99.381,69.14 96.381,87.14 76.348,96.011 "/>
<g>
	<path fill="#666666" d="M144.9,133.848c0,0.989-0.811,1.8-1.8,1.8H1.801c-0.99,0-1.801-0.811-1.801-1.8v-32.4
		c0-0.99,0.811-1.8,1.801-1.8h141.3c0.989,0,1.8,0.81,1.8,1.8V133.848z"/>
	<g>
		<polygon fill="#FFFFFF" points="9.9,108.647 9.9,113.147 12.601,113.147 12.601,114.947 16.201,114.947 16.201,113.147 
			18.9,113.147 18.9,108.647 		"/>
		<polygon fill="#FFFFFF" points="9.9,121.247 9.9,125.747 12.601,125.747 12.601,127.548 16.201,127.548 16.201,125.747 
			18.9,125.747 18.9,121.247 		"/>
		<polygon fill="#FFFFFF" points="21.601,108.647 21.601,113.147 24.301,113.147 24.301,114.947 27.9,114.947 27.9,113.147 
			30.601,113.147 30.601,108.647 		"/>
		<polygon fill="#FFFFFF" points="21.601,121.247 21.601,125.747 24.301,125.747 24.301,127.548 27.9,127.548 27.9,125.747 
			30.601,125.747 30.601,121.247 		"/>
		<polygon fill="#FFFFFF" points="33.301,108.647 33.301,113.147 36,113.147 36,114.947 39.601,114.947 39.601,113.147 
			42.301,113.147 42.301,108.647 		"/>
		<polygon fill="#FFFFFF" points="33.301,121.247 33.301,125.747 36,125.747 36,127.548 39.601,127.548 39.601,125.747 
			42.301,125.747 42.301,121.247 		"/>
		<polygon fill="#FFFFFF" points="45,108.647 45,113.147 47.701,113.147 47.701,114.947 51.301,114.947 51.301,113.147 54,113.147 
			54,108.647 		"/>
		<polygon fill="#FFFFFF" points="45,121.247 45,125.747 47.701,125.747 47.701,127.548 51.301,127.548 51.301,125.747 54,125.747 
			54,121.247 		"/>
		<polygon fill="#FFFFFF" points="56.701,108.647 56.701,113.147 59.4,113.147 59.4,114.947 63,114.947 63,113.147 65.701,113.147 
			65.701,108.647 		"/>
		<polygon fill="#FFFFFF" points="56.701,121.247 56.701,125.747 59.4,125.747 59.4,127.548 63,127.548 63,125.747 65.701,125.747 
			65.701,121.247 		"/>
	</g>
	<path fill="#FFFFFF" d="M137.332,125.298c0,1.485-1.215,2.699-2.701,2.699H79.731c-1.485,0-2.7-1.214-2.7-2.699v-15.3
		c0-1.486,1.215-2.701,2.7-2.701h54.899c1.486,0,2.701,1.215,2.701,2.701V125.298z"/>
	<g>
		<rect x="84.682" y="114.434" fill="#666666" width="4.821" height="1.606"/>
		<rect x="84.682" y="119.255" fill="#666666" width="4.821" height="1.606"/>
		<rect x="92.717" y="114.434" fill="#666666" width="4.821" height="1.606"/>
		<rect x="92.717" y="119.255" fill="#666666" width="4.821" height="1.606"/>
		<rect x="100.753" y="114.434" fill="#666666" width="4.819" height="1.606"/>
		<rect x="100.753" y="119.255" fill="#666666" width="4.819" height="1.606"/>
		<rect x="108.788" y="114.434" fill="#666666" width="4.821" height="1.606"/>
		<rect x="108.788" y="119.255" fill="#666666" width="4.821" height="1.606"/>
		<rect x="116.822" y="114.434" fill="#666666" width="4.822" height="1.606"/>
		<rect x="116.822" y="119.255" fill="#666666" width="4.822" height="1.606"/>
		<rect x="124.859" y="114.434" fill="#666666" width="4.822" height="1.606"/>
		<rect x="124.859" y="119.255" fill="#666666" width="4.822" height="1.606"/>
	</g>
</g>
<g>
	<path fill="#666666" d="M66.488,96.011c0,0-17.88,1.753-25.218-7.651c-7.335-9.406-8.479-17.284-8.022-22.75
		c0.459-5.464-8.251-13.559-8.251-13.559l15.128,5.466c0,0,0.688-4.808-0.688-10.496c-1.376-5.683-3.896-9.404-3.896-9.404
		s5.5,1.094,8.022,2.847c2.523,1.749,5.503,4.591,5.503,4.591s1.604-7.438,1.147-11.81c-0.463-4.374-4.358-10.718-4.358-10.718
		s5.734-0.219,8.941,1.313c3.208,1.528,7.105,5.683,7.105,5.683s-0.918-9.837,0.229-14.646C63.279,10.062,69.701,0,69.701,0
		s0.913,7.219,1.833,11.152c0.915,3.938,5.271,10.938,6.42,16.844c1.143,5.905,1.143,12.026,1.143,12.026l9.632-15.528
		c0,0,2.063,7.001,2.292,12.464c0.229,5.47,1.604,12.909,1.604,12.909s3.897-1.973,5.959-5.25c2.063-3.279,4.126-8.092,4.126-8.092
		s2.295,6.121,2.295,11.156c0,5.027-2.522,11.151-2.522,11.151s4.354-1.09,8.025-1.749c3.667-0.659,9.397-1.314,9.397-1.314
		s-3.895,3.063-6.189,6.565c-2.296,3.499-3.898,11.81-7.336,21.866c-9.169,12.905-30.031,11.81-30.031,11.81
		s9.398-6.56,12.381-10.057c2.976-3.502,2.747-7.22,2.747-7.22s-3.207,1.093-4.583,1.745c-1.375,0.661-3.666,2.411-3.666,2.411
		s1.376-5.247,3.436-8.969c2.066-3.718,3.211-9.845,3.211-9.845s-1.833,0.442-4.587,1.757c-2.748,1.307-3.895,3.715-3.895,3.715
		s0.459-5.688,0.459-8.529c0-2.844-0.688-6.125-0.688-6.125s-2.523,0.875-3.671,2.189c-1.145,1.311-2.979,4.593-2.979,4.593
		s-0.229-2.844-1.376-5.907c-1.147-3.061-3.207-6.121-3.207-6.121s-2.295,2.402-2.752,4.592c-0.457,2.185-0.689,5.683-0.689,5.683
		s-1.376-2.18-2.521-3.715c-1.145-1.531-3.666-3.499-3.666-3.499s-1.376,4.808-1.376,8.095c0,3.273,2.523,12.899,2.523,12.899
		s-2.752-1.528-4.128-3.499c-1.375-1.967-5.729-3.716-5.729-3.716s-0.463,3.277-0.463,5.248c0,1.967,0.691,7.653,0.691,7.653
		l-4.128-0.875c0,0,0.917,4.593,5.73,8.972C58.239,91.856,66.488,96.011,66.488,96.011z"/>
</g>
</svg>
