<?xml version="1.0" encoding="utf-8"?>
<!-- Generator: Adobe Illustrator 13.0.2, SVG Export Plug-In . SVG Version: 6.00 Build 14948)  -->
<!DOCTYPE svg PUBLIC "-//W3C//DTD SVG 1.1 Tiny//EN" "http://www.w3.org/Graphics/SVG/1.1/DTD/svg11-tiny.dtd">
<svg version="1.1" baseProfile="tiny" id="Layer_1" xmlns="http://www.w3.org/2000/svg" xmlns:xlink="http://www.w3.org/1999/xlink"
	 x="0px" y="0px" width="148.901px" height="143.384px" viewBox="0 0 148.901 143.384" xml:space="preserve">
<g>
	<path fill="#FFFFFF" d="M65.1,103.876c-6.249,0-17.601-1.111-23.406-8.551c-6.269-8.035-9.107-16.161-8.439-24.146
		c0.273-3.266-4.528-9.05-7.619-11.93L21.9,55.383c0,0,3.553,0.045,5.776,0.522s12.616,4.559,12.616,4.559
		c0.019-1.808-0.118-4.415-0.8-7.237c-1.264-5.223-3.586-8.721-3.609-8.758l-2.7-4.02l4.749,0.942
		c0.604,0.119,5.989,1.229,8.772,3.165c1.017,0.703,2.089,1.563,3.026,2.358c0.369-2.393,0.725-5.53,0.496-7.729
		c-0.34-3.204-3.057-8.217-4.076-9.877L44.368,26.4l3.411-0.137c0,0,0.313-0.011,0.839-0.011c2.189,0,6.276,0.197,9.042,1.52
		c1.32,0.628,2.713,1.625,3.947,2.633c-0.113-3.293-0.081-7.482,0.579-10.255c1.211-5.083,7.558-15.067,7.828-15.49L72.988,0
		l0.696,5.485c0.009,0.072,0.912,7.161,1.799,10.949c0.348,1.501,1.36,3.725,2.435,6.078c1.547,3.395,3.298,7.241,3.999,10.837
		c0.397,2.048,0.66,4.109,0.835,5.946l6.275-10.12l2.356-3.796l1.263,4.284c0.087,0.298,2.136,7.304,2.373,12.947
		c0.13,3.148,0.662,7.024,1.072,9.647c0.974-0.76,2.046-1.772,2.798-2.971c1.954-3.104,3.96-7.767,3.979-7.813l1.963-4.575
		l1.749,4.66c0.099,0.266,2.423,6.521,2.423,11.857c0,2.884-0.741,6.034-1.444,8.373c1.405-0.314,3.05-0.662,4.593-0.939
		c3.688-0.66,9.289-1.306,9.526-1.331l6.993-0.801l-5.53,4.359c-0.036,0.027-3.674,2.913-5.754,6.09
		c-1.241,1.891-2.356,5.729-3.766,10.586c-0.938,3.228-2,6.885-3.35,10.832l-0.094,0.273l-0.169,0.236
		c-8.356,11.759-25.414,12.673-30.442,12.673c-0.696,0-1.143-0.017-1.279-0.023H68.59C68.246,103.775,66.961,103.876,65.1,103.876
		L65.1,103.876z"/>
	<path fill="#FFFFFF" d="M145.101,143.384H3.801c-2.096,0-3.801-1.705-3.801-3.8v-32.4c0-2.095,1.705-3.8,3.801-3.8h141.3
		c2.096,0,3.801,1.705,3.801,3.8v32.4C148.901,141.679,147.196,143.384,145.101,143.384L145.101,143.384z"/>
	<path fill="#666666" d="M145.101,105.384H3.801c-0.99,0-1.801,0.81-1.801,1.8v32.4c0,0.989,0.811,1.8,1.801,1.8h141.3
		c0.989,0,1.8-0.811,1.8-1.8v-32.4C146.9,106.193,146.09,105.384,145.101,105.384z M20.9,131.483h-2.699v1.801h-3.601v-1.801h-2.7
		v-4.5h9V131.483z M20.9,118.884h-2.699v1.8h-3.601v-1.8h-2.7v-4.5h9V118.884z M32.601,131.483h-2.7v1.801h-3.6v-1.801h-2.7v-4.5h9
		V131.483z M32.601,118.884h-2.7v1.8h-3.6v-1.8h-2.7v-4.5h9V118.884z M44.301,131.483h-2.7v1.801H38v-1.801h-2.699v-4.5h9V131.483z
		 M44.301,118.884h-2.7v1.8H38v-1.8h-2.699v-4.5h9V118.884z M56,131.483h-2.699v1.801h-3.6v-1.801H47v-4.5h9V131.483z M56,118.884
		h-2.699v1.8h-3.6v-1.8H47v-4.5h9V118.884z M67.701,131.483H65v1.801h-3.6v-1.801h-2.699v-4.5h9V131.483z M67.701,118.884H65v1.8
		h-3.6v-1.8h-2.699v-4.5h9V118.884z M139.332,131.034c0,1.485-1.215,2.699-2.701,2.699H81.731c-1.485,0-2.7-1.214-2.7-2.699v-15.3
		c0-1.486,1.215-2.701,2.7-2.701h54.899c1.486,0,2.701,1.215,2.701,2.701V131.034z"/>
	<g>
		<rect x="86.682" y="120.17" fill="#666666" width="4.821" height="1.606"/>
		<rect x="86.682" y="124.991" fill="#666666" width="4.821" height="1.606"/>
		<rect x="94.717" y="120.17" fill="#666666" width="4.821" height="1.606"/>
		<rect x="94.717" y="124.991" fill="#666666" width="4.821" height="1.606"/>
		<rect x="102.753" y="120.17" fill="#666666" width="4.819" height="1.606"/>
		<rect x="102.753" y="124.991" fill="#666666" width="4.819" height="1.606"/>
		<rect x="110.788" y="120.17" fill="#666666" width="4.821" height="1.606"/>
		<rect x="110.788" y="124.991" fill="#666666" width="4.821" height="1.606"/>
		<rect x="118.822" y="120.17" fill="#666666" width="4.822" height="1.606"/>
		<rect x="118.822" y="124.991" fill="#666666" width="4.822" height="1.606"/>
		<rect x="126.859" y="120.17" fill="#666666" width="4.822" height="1.606"/>
		<rect x="126.859" y="124.991" fill="#666666" width="4.822" height="1.606"/>
	</g>
	<g>
		<path fill="#666666" d="M68.488,101.747c0,0-17.88,1.753-25.218-7.651c-7.335-9.406-8.479-17.284-8.022-22.75
			c0.459-5.464-8.251-13.559-8.251-13.559l15.128,5.466c0,0,0.688-4.808-0.688-10.496c-1.376-5.683-3.896-9.404-3.896-9.404
			s5.5,1.094,8.022,2.847c2.523,1.749,5.503,4.591,5.503,4.591s1.604-7.438,1.147-11.81c-0.463-4.374-4.358-10.718-4.358-10.718
			s5.734-0.219,8.941,1.313c3.208,1.528,7.105,5.683,7.105,5.683s-0.918-9.837,0.229-14.646c1.147-4.814,7.569-14.877,7.569-14.877
			s0.913,7.219,1.833,11.152c0.915,3.938,5.271,10.938,6.42,16.844c1.143,5.905,1.143,12.026,1.143,12.026l9.632-15.528
			c0,0,2.063,7.001,2.292,12.464c0.229,5.47,1.604,12.909,1.604,12.909s3.897-1.973,5.959-5.25c2.063-3.279,4.126-8.092,4.126-8.092
			s2.295,6.121,2.295,11.156c0,5.027-2.522,11.151-2.522,11.151s4.354-1.09,8.025-1.749c3.667-0.659,9.397-1.314,9.397-1.314
			s-3.895,3.063-6.189,6.565c-2.296,3.499-3.898,11.81-7.336,21.866c-9.169,12.905-30.031,11.81-30.031,11.81
			s9.398-6.56,12.381-10.057c2.976-3.502,2.747-7.22,2.747-7.22s-3.207,1.093-4.583,1.745c-1.375,0.661-3.666,2.411-3.666,2.411
			s1.376-5.247,3.436-8.969c2.066-3.718,3.211-9.845,3.211-9.845s-1.833,0.442-4.587,1.757c-2.748,1.307-3.895,3.715-3.895,3.715
			s0.459-5.688,0.459-8.529c0-2.844-0.688-6.125-0.688-6.125s-2.523,0.875-3.671,2.189c-1.145,1.311-2.979,4.593-2.979,4.593
			s-0.229-2.844-1.376-5.907c-1.147-3.061-3.207-6.121-3.207-6.121s-2.295,2.402-2.752,4.592c-0.457,2.185-0.689,5.683-0.689,5.683
			s-1.376-2.18-2.521-3.715c-1.145-1.531-3.666-3.499-3.666-3.499s-1.376,4.808-1.376,8.095c0,3.273,2.523,12.899,2.523,12.899
			s-2.752-1.528-4.128-3.499c-1.375-1.967-5.729-3.716-5.729-3.716s-0.463,3.277-0.463,5.248c0,1.967,0.691,7.653,0.691,7.653
			l-4.128-0.875c0,0,0.917,4.593,5.73,8.972C60.239,97.593,68.488,101.747,68.488,101.747z"/>
	</g>
</g>
</svg>
