<?xml version="1.0" encoding="utf-8"?>
<!-- Generator: Adobe Illustrator 13.0.2, SVG Export Plug-In . SVG Version: 6.00 Build 14948)  -->
<!DOCTYPE svg PUBLIC "-//W3C//DTD SVG 1.1 Tiny//EN" "http://www.w3.org/Graphics/SVG/1.1/DTD/svg11-tiny.dtd">
<svg version="1.1" baseProfile="tiny" id="Layer_1" xmlns="http://www.w3.org/2000/svg" xmlns:xlink="http://www.w3.org/1999/xlink"
	 x="0px" y="0px" width="180px" height="180px" viewBox="0 0 180 180" xml:space="preserve">
<g>
	<g>
		<path fill="#666666" d="M107.311,132.025c1.596-4.022,13.559-9.481,17.148-11.205s18.346-12.067,19.143-18.963
			c0.799-6.896-8.773-20.398-10.766-23.271c-1.996-2.873-3.99-11.493-3.99-11.493s-1.197,11.493-0.797,14.079
			c0.398,2.585,3.189,14.365,2.791,16.664c-0.398,2.298-2.791,12.066-11.166,12.642c-8.375,0.574-12.762-8.332-13.559-12.93
			c-0.799-4.597,6.779-21.261,6.779-21.261s7.178-17.526,5.98-22.123c-1.195-4.597-8.771-13.791-8.771-13.791l-4.389-7.47
			c0,0-0.398,6.033,1.596,11.205c1.994,5.171,2.393,5.459,1.596,8.906c-0.799,3.448-5.186,11.492-8.775,13.217
			c-3.588,1.724-5.582,2.011-8.771,2.011c-3.191,0-12.365-6.32-9.574-14.365c2.793-8.045,8.376-16.377,9.574-19.537
			c1.195-3.161,3.189-8.045,1.992-14.366c-1.195-6.32-4.387-13.791-4.387-13.791s1.994,6.033-0.398,10.631
			c-2.393,4.597-11.167,14.652-16.75,19.824C66.233,41.81,57.858,46.694,57.06,55.313c-0.797,8.619,7.181,18.963,8.775,21.836
			s6.381,10.918,7.178,13.503c0.798,2.586,1.596,7.758,0,10.918c-1.595,3.16-3.987,4.598-7.178,4.885
			c-3.191,0.287-10.768-2.873-14.358-8.332c-3.589-5.459-3.988-8.332-3.589-12.067c0.398-3.735,3.589-15.802,3.19-19.824
			c-0.399-4.022-5.982-12.642-5.982-12.642s2.792,8.906,1.197,12.066c-1.597,3.161-4.786,10.057-5.981,12.643
			c-1.196,2.585-5.184,12.641-3.59,18.675c1.597,6.033,6.382,11.779,13.957,16.377c7.578,4.597,10.77,8.619,12.764,11.492
			c1.993,2.873,1.595,14.94,1.595,14.94h41.079C106.116,139.783,105.715,136.048,107.311,132.025z"/>
		<path fill="#FFFFFF" d="M131.391,81.677c0.195,0.986,0.625,3.155,0.625,3.155c1.332,6.42,2.326,11.475,2.012,13.289
			c-0.4,2.312-2.963,13.886-14.029,14.646c-10.395,0.713-15.959-8.781-17.027-14.933c-0.844-4.861,5.609-19.397,6.912-22.262
			c2.863-6.993,6.605-18.19,5.879-20.984c-0.447-1.719-2.035-4.362-3.764-6.884c0.611,1.878,0.666,3.136,0.076,5.688
			c-0.746,3.225-5.227,12.387-10.15,14.752c-4.221,2.026-6.861,2.396-10.543,2.396c-3.07,0-6.442-2.104-8.578-4.074
			c-4.165-3.844-5.656-8.635-4.09-13.146c1.822-5.252,4.803-10.628,6.979-14.553c1.191-2.147,2.22-4.002,2.609-5.032l0.135-0.357
			c1.199-3.152,2.842-7.469,1.777-13.094c-0.02-0.105-0.051-0.217-0.072-0.324c-3.543,5.271-10.833,13.505-15.783,18.09l-3.83,3.293
			c-4.769,3.959-9.701,8.053-10.263,14.124c-0.606,6.578,4.669,14.743,7.205,18.667l1.349,2.162l1.355,2.388
			c2.785,4.868,5.338,9.408,5.975,11.472c0.852,2.76,1.785,8.436-0.116,12.202c-1.931,3.822-5.22,5.968-9.781,6.379
			c-5.037,0.453-13.65-3.567-17.636-9.63c-3.834-5.828-4.322-9.145-3.888-13.227l1.226-6.583c0.615-2.959,1.369-6.62,1.748-9.447
			c-1.716,3.623-4.342,9.176-4.342,9.176c-1.437,3.104-4.86,12.302-3.48,17.52c1.491,5.637,5.941,10.84,12.876,15.049
			c7.729,4.688,11.191,8.81,13.562,12.222c1.77,2.551,2,11.832,1.973,15.969c5.021,0,29.687,0,34.654,0
			c0.094-1.599,0.406-6.083,1.32-8.389c1.6-4.029,9.814-8.379,17.639-12.101l0.811-0.386c3.447-1.656,17.066-11.474,17.732-17.241
			C140.694,99.516,139.733,94.041,131.391,81.677z"/>
	</g>
	<g>
		<path fill="#FFFFFF" d="M149,171.818c0,1.1-0.9,2-2,2H33c-1.101,0-2-0.9-2-2v-54c0-1.1,0.899-2,2-2h114c1.1,0,2,0.9,2,2V171.818z"
			/>
		<path fill="#666666" d="M51,122.818c0,0.55-0.45,1-1,1H32c-0.55,0-1-0.45-1-1v-6c0-0.55,0.45-1,1-1h18c0.55,0,1,0.45,1,1V122.818z
			"/>
		<path fill="#666666" d="M73,122.818c0,0.55-0.45,1-1,1H54c-0.55,0-1-0.45-1-1v-6c0-0.55,0.45-1,1-1h18c0.55,0,1,0.45,1,1V122.818z
			"/>
		<path fill="#666666" d="M95,122.818c0,0.55-0.451,1-1,1H76c-0.55,0-1-0.45-1-1v-6c0-0.55,0.45-1,1-1h18c0.549,0,1,0.45,1,1
			V122.818z"/>
		<path fill="#666666" d="M117,122.818c0,0.55-0.451,1-1,1H98c-0.551,0-1-0.45-1-1v-6c0-0.55,0.449-1,1-1h18c0.549,0,1,0.45,1,1
			V122.818z"/>
		<path fill="#666666" d="M139,122.818c0,0.55-0.451,1-1,1h-18c-0.551,0-1-0.45-1-1v-6c0-0.55,0.449-1,1-1h18c0.549,0,1,0.45,1,1
			V122.818z"/>
		<path fill="#666666" d="M61,132.818c0,0.55-0.45,1-1,1H42c-0.55,0-1-0.45-1-1v-6c0-0.55,0.45-1,1-1h18c0.55,0,1,0.45,1,1V132.818z
			"/>
		<path fill="#666666" d="M83,132.818c0,0.55-0.45,1-1,1H64c-0.55,0-1-0.45-1-1v-6c0-0.55,0.45-1,1-1h18c0.55,0,1,0.45,1,1V132.818z
			"/>
		<path fill="#666666" d="M105,132.818c0,0.55-0.451,1-1,1H86c-0.55,0-1-0.45-1-1v-6c0-0.55,0.45-1,1-1h18c0.549,0,1,0.45,1,1
			V132.818z"/>
		<path fill="#666666" d="M127,132.818c0,0.55-0.451,1-1,1h-18c-0.551,0-1-0.45-1-1v-6c0-0.55,0.449-1,1-1h18c0.549,0,1,0.45,1,1
			V132.818z"/>
		<path fill="#666666" d="M149,132.818c0,0.55-0.451,1-1,1h-18c-0.551,0-1-0.45-1-1v-6c0-0.55,0.449-1,1-1h18c0.549,0,1,0.45,1,1
			V132.818z"/>
		<path fill="#666666" d="M51,142.818c0,0.55-0.45,1-1,1H32c-0.55,0-1-0.45-1-1v-6c0-0.55,0.45-1,1-1h18c0.55,0,1,0.45,1,1V142.818z
			"/>
		<path fill="#666666" d="M73,142.818c0,0.55-0.45,1-1,1H54c-0.55,0-1-0.45-1-1v-6c0-0.55,0.45-1,1-1h18c0.55,0,1,0.45,1,1V142.818z
			"/>
		<path fill="#666666" d="M95,142.818c0,0.55-0.451,1-1,1H76c-0.55,0-1-0.45-1-1v-6c0-0.55,0.45-1,1-1h18c0.549,0,1,0.45,1,1
			V142.818z"/>
		<path fill="#666666" d="M117,142.818c0,0.55-0.451,1-1,1H98c-0.551,0-1-0.45-1-1v-6c0-0.55,0.449-1,1-1h18c0.549,0,1,0.45,1,1
			V142.818z"/>
		<path fill="#666666" d="M139,142.818c0,0.55-0.451,1-1,1h-18c-0.551,0-1-0.45-1-1v-6c0-0.55,0.449-1,1-1h18c0.549,0,1,0.45,1,1
			V142.818z"/>
		<path fill="#666666" d="M61,152.818c0,0.55-0.45,1-1,1H42c-0.55,0-1-0.45-1-1v-6c0-0.55,0.45-1,1-1h18c0.55,0,1,0.45,1,1V152.818z
			"/>
		<path fill="#666666" d="M83,152.818c0,0.55-0.45,1-1,1H64c-0.55,0-1-0.45-1-1v-6c0-0.55,0.45-1,1-1h18c0.55,0,1,0.45,1,1V152.818z
			"/>
		<path fill="#666666" d="M105,152.818c0,0.55-0.451,1-1,1H86c-0.55,0-1-0.45-1-1v-6c0-0.55,0.45-1,1-1h18c0.549,0,1,0.45,1,1
			V152.818z"/>
		<path fill="#666666" d="M127,152.818c0,0.55-0.451,1-1,1h-18c-0.551,0-1-0.45-1-1v-6c0-0.55,0.449-1,1-1h18c0.549,0,1,0.45,1,1
			V152.818z"/>
		<path fill="#666666" d="M149,152.818c0,0.55-0.451,1-1,1h-18c-0.551,0-1-0.45-1-1v-6c0-0.55,0.449-1,1-1h18c0.549,0,1,0.45,1,1
			V152.818z"/>
		<path fill="#666666" d="M51,162.818c0,0.55-0.45,1-1,1H32c-0.55,0-1-0.45-1-1v-6c0-0.55,0.45-1,1-1h18c0.55,0,1,0.45,1,1V162.818z
			"/>
		<path fill="#666666" d="M73,162.818c0,0.55-0.45,1-1,1H54c-0.55,0-1-0.45-1-1v-6c0-0.55,0.45-1,1-1h18c0.55,0,1,0.45,1,1V162.818z
			"/>
		<path fill="#666666" d="M95,162.818c0,0.55-0.451,1-1,1H76c-0.55,0-1-0.45-1-1v-6c0-0.55,0.45-1,1-1h18c0.549,0,1,0.45,1,1
			V162.818z"/>
		<path fill="#666666" d="M117,162.818c0,0.55-0.451,1-1,1H98c-0.551,0-1-0.45-1-1v-6c0-0.55,0.449-1,1-1h18c0.549,0,1,0.45,1,1
			V162.818z"/>
		<path fill="#666666" d="M139,162.818c0,0.55-0.451,1-1,1h-18c-0.551,0-1-0.45-1-1v-6c0-0.55,0.449-1,1-1h18c0.549,0,1,0.45,1,1
			V162.818z"/>
		<path fill="#666666" d="M61,172.818c0,0.55-0.45,1-1,1H42c-0.55,0-1-0.45-1-1v-6c0-0.55,0.45-1,1-1h18c0.55,0,1,0.45,1,1V172.818z
			"/>
		<path fill="#666666" d="M83,172.818c0,0.55-0.45,1-1,1H64c-0.55,0-1-0.45-1-1v-6c0-0.55,0.45-1,1-1h18c0.55,0,1,0.45,1,1V172.818z
			"/>
		<path fill="#666666" d="M105,172.818c0,0.55-0.451,1-1,1H86c-0.55,0-1-0.45-1-1v-6c0-0.55,0.45-1,1-1h18c0.549,0,1,0.45,1,1
			V172.818z"/>
		<path fill="#666666" d="M127,172.818c0,0.55-0.451,1-1,1h-18c-0.551,0-1-0.45-1-1v-6c0-0.55,0.449-1,1-1h18c0.549,0,1,0.45,1,1
			V172.818z"/>
		<path fill="#666666" d="M149,172.818c0,0.55-0.451,1-1,1h-18c-0.551,0-1-0.45-1-1v-6c0-0.55,0.449-1,1-1h18c0.549,0,1,0.45,1,1
			V172.818z"/>
		<path fill="#666666" d="M149,115.818h-7c-0.551,0-1,0.45-1,1v6c0,0.55,0.449,1,1,1h7V115.818z"/>
		<path fill="#666666" d="M149,135.818h-7c-0.551,0-1,0.45-1,1v6c0,0.55,0.449,1,1,1h7V135.818z"/>
		<path fill="#666666" d="M149,155.818h-7c-0.551,0-1,0.45-1,1v6c0,0.55,0.449,1,1,1h7V155.818z"/>
		<path fill="#666666" d="M38,125.818h-7v8h7c0.55,0,1-0.45,1-1v-6C39,126.269,38.55,125.818,38,125.818z"/>
		<path fill="#666666" d="M38,145.818h-7v8h7c0.55,0,1-0.45,1-1v-6C39,146.269,38.55,145.818,38,145.818z"/>
		<path fill="#666666" d="M38,165.818h-7v8h7c0.55,0,1-0.45,1-1v-6C39,166.269,38.55,165.818,38,165.818z"/>
	</g>
</g>
</svg>
