<?xml version="1.0" encoding="utf-8"?>
<!-- Generator: Adobe Illustrator 13.0.2, SVG Export Plug-In . SVG Version: 6.00 Build 14948)  -->
<!DOCTYPE svg PUBLIC "-//W3C//DTD SVG 1.1 Tiny//EN" "http://www.w3.org/Graphics/SVG/1.1/DTD/svg11-tiny.dtd">
<svg version="1.1" baseProfile="tiny" id="Layer_1" xmlns="http://www.w3.org/2000/svg" xmlns:xlink="http://www.w3.org/1999/xlink"
	 x="0px" y="0px" width="59.711px" height="59.711px" viewBox="0 0 59.711 59.711" xml:space="preserve">
<polygon fill="#FF0000" points="29.855,4.855 32.796,0 34.732,5.336 38.564,1.147 39.423,6.758 43.997,3.397 43.745,9.068 
	48.888,6.665 47.533,12.178 53.046,10.823 50.643,15.966 56.313,15.713 52.952,20.288 58.563,21.146 54.375,24.978 59.711,26.915 
	54.855,29.855 59.711,32.796 54.375,34.732 58.563,38.563 52.952,39.422 56.313,43.997 50.643,43.744 53.046,48.887 47.533,47.533 
	48.888,53.046 43.745,50.642 43.997,56.312 39.423,52.952 38.564,58.563 34.732,54.375 32.796,59.711 29.855,54.855 26.915,59.711 
	24.979,54.375 21.146,58.563 20.288,52.952 15.714,56.312 15.966,50.642 10.823,53.046 12.178,47.533 6.665,48.887 9.068,43.744 
	3.397,43.997 6.759,39.422 1.147,38.563 5.336,34.732 0,32.796 4.855,29.855 0,26.915 5.336,24.978 1.147,21.146 6.759,20.288 
	3.397,15.713 9.068,15.966 6.665,10.823 12.178,12.178 10.823,6.665 15.966,9.068 15.714,3.397 20.288,6.758 21.146,1.147 
	24.979,5.336 26.915,0 "/>
<g>
	<path fill="#FFFFFF" d="M29.949,13.215c1.375,0,2.508,0.547,3.398,1.641s1.336,2.484,1.336,4.172c0,0.703-0.086,1.434-0.258,2.191
		s-0.508,1.91-1.008,3.457c-0.719,2.188-1.223,3.934-1.512,5.238s-0.465,2.582-0.527,3.832c-0.031,0.641-0.152,1.094-0.363,1.359
		s-0.551,0.398-1.02,0.398c-0.406,0-0.707-0.113-0.902-0.34s-0.309-0.598-0.34-1.113c-0.094-1.047-0.172-1.785-0.234-2.215
		s-0.211-1.098-0.445-2.004c-0.375-1.469-0.859-3.047-1.453-4.734c-0.703-1.984-1.145-3.344-1.324-4.078s-0.27-1.539-0.27-2.414
		c0-1.406,0.43-2.641,1.289-3.703C27.207,13.777,28.418,13.215,29.949,13.215z M29.832,37.379c1.25,0,2.32,0.445,3.211,1.336
		s1.336,1.961,1.336,3.211c0,1.266-0.445,2.344-1.336,3.234s-1.961,1.336-3.211,1.336c-1.266,0-2.344-0.445-3.234-1.336
		s-1.336-1.969-1.336-3.234c0-1.25,0.445-2.32,1.336-3.211S28.566,37.379,29.832,37.379z"/>
</g>
</svg>
