<?xml version="1.0" encoding="utf-8"?>
<!-- Generator: Adobe Illustrator 13.0.2, SVG Export Plug-In . SVG Version: 6.00 Build 14948)  -->
<!DOCTYPE svg PUBLIC "-//W3C//DTD SVG 1.1 Tiny//EN" "http://www.w3.org/Graphics/SVG/1.1/DTD/svg11-tiny.dtd">
<svg version="1.1" baseProfile="tiny" id="Layer_1" xmlns="http://www.w3.org/2000/svg" xmlns:xlink="http://www.w3.org/1999/xlink"
	 x="0px" y="0px" width="189.999px" height="142.468px" viewBox="0 0 189.999 142.468" xml:space="preserve">
<g>
	<path fill="#666666" d="M97.067,142.468c-10.781,0-21.057-3.986-29.07-11.254c-1.966,0.611-4,0.922-6.064,0.922
		c-6.502,0-12.584-3.071-16.479-8.269h-8.321C16.658,123.867,0,107.209,0,86.733c0-16.677,10.969-31.121,26.87-35.667
		C27.159,22.858,50.193,0,78.467,0c20.349,0,39.067,12.291,47.229,30.8c3.049-1.226,6.328-1.867,9.602-1.867
		c12.709,0,23.387,9.158,25.42,21.535c17.053,3.668,29.281,18.688,29.281,36.266c0,20.476-16.659,37.134-37.137,37.134h-20.254
		C124.472,135.535,111.268,142.468,97.067,142.468L97.067,142.468z"/>
	<path fill="#FFFFFF" d="M158.929,52.157c-1.268-11.914-11.385-21.225-23.631-21.225c-3.723,0-7.371,0.881-10.658,2.535
		C117.276,14.688,99.024,2,78.467,2C51.116,2,28.866,24.251,28.866,51.603c0,0.334,0.004,0.67,0.012,1.004
		C13.31,56.354,1.999,70.399,1.999,86.733c0,19.373,15.761,35.136,35.135,35.136h9.353c3.421,5.094,9.226,8.267,15.446,8.267
		c2.24,0,4.459-0.41,6.549-1.205c7.682,7.364,17.932,11.538,28.586,11.538c13.859,0,26.855-7.072,34.48-18.6h21.314
		c19.373,0,35.137-15.763,35.137-35.136C187.999,69.563,175.509,55.051,158.929,52.157z M152.866,117.733h-23.617
		c-6.438,11.109-18.424,18.601-32.184,18.601c-11.012,0-20.873-4.812-27.685-12.414c-2.179,1.312-4.72,2.08-7.448,2.08
		c-5.77,0-10.733-3.383-13.057-8.267H37.132c-17.12,0-30.999-13.88-30.999-31c0-15.79,11.815-28.796,27.082-30.725
		c-0.14-1.452-0.216-2.921-0.216-4.409c0-25.11,20.355-45.466,45.467-45.466c21.07,0,38.783,14.334,43.941,33.781
		c3.451-3.012,7.953-4.849,12.891-4.849c10.844,0,19.635,8.79,19.635,19.634c0,0.383-0.037,0.757-0.057,1.135
		c16.178,1.04,28.988,14.456,28.988,30.898C183.864,103.854,169.985,117.733,152.866,117.733z"/>
	<g>
		<path fill="#FFFFFF" d="M23.246,70.837v25.318h-3.821V70.837H23.246z"/>
		<path fill="#FFFFFF" d="M29.329,96.155V69.114l18.465,19.317V70.837h3.82v26.859L33.149,78.429v17.727H29.329z"/>
		<path fill="#FFFFFF" d="M64.667,74.428v21.728h-3.82V74.428h-5.822v-3.591h15.447v3.591H64.667z"/>
		<path fill="#FFFFFF" d="M87.854,74.428h-10.15v6.084h9.855v3.591h-9.855v8.462h10.15v3.591H73.884V70.837h13.971V74.428z"/>
		<path fill="#FFFFFF" d="M101.448,85.365l7.838,10.79h-4.674l-7.23-10.363h-0.689v10.363h-3.82V70.837h4.477
			c3.346,0,5.762,0.628,7.248,1.886c1.641,1.399,2.459,3.246,2.459,5.542c0,1.793-0.514,3.335-1.541,4.624
			C104.487,84.18,103.132,85.005,101.448,85.365z M96.692,82.463h1.215c3.617,0,5.428-1.383,5.428-4.148
			c0-2.591-1.762-3.887-5.281-3.887h-1.361V82.463z"/>
		<path fill="#FFFFFF" d="M113.091,96.155V69.114l18.465,19.317V70.837h3.82v26.859l-18.465-19.268v17.727H113.091z"/>
		<path fill="#FFFFFF" d="M155.415,74.428h-10.15v6.084h9.855v3.591h-9.855v8.462h10.15v3.591h-13.973V70.837h13.973V74.428z"/>
		<path fill="#FFFFFF" d="M167.419,74.428v21.728h-3.822V74.428h-5.82v-3.591h15.447v3.591H167.419z"/>
	</g>
</g>
</svg>
