<?xml version="1.0" encoding="utf-8"?>
<!-- Generator: Adobe Illustrator 13.0.2, SVG Export Plug-In . SVG Version: 6.00 Build 14948)  -->
<!DOCTYPE svg PUBLIC "-//W3C//DTD SVG 1.1 Tiny//EN" "http://www.w3.org/Graphics/SVG/1.1/DTD/svg11-tiny.dtd">
<svg version="1.1" baseProfile="tiny" id="Layer_1" xmlns="http://www.w3.org/2000/svg" xmlns:xlink="http://www.w3.org/1999/xlink"
	 x="0px" y="0px" width="186px" height="138.469px" viewBox="0 0 186 138.469" xml:space="preserve">
<g>
	<path fill="#666666" d="M95.068,138.469c-10.653,0-20.903-4.174-28.585-11.538c-2.09,0.795-4.309,1.205-6.549,1.205
		c-6.221,0-12.024-3.173-15.446-8.267h-9.353C15.761,119.869,0,104.106,0,84.733c0-16.334,11.311-30.378,26.879-34.127
		c-0.008-0.333-0.012-0.67-0.012-1.004C26.868,22.251,49.118,0,76.468,0c20.558,0,38.81,12.688,46.173,31.467
		c3.287-1.654,6.936-2.535,10.658-2.535c12.246,0,22.363,9.311,23.631,21.226C173.51,53.051,186,67.564,186,84.733
		c0,19.373-15.764,35.136-35.137,35.136h-21.314C121.924,131.396,108.928,138.469,95.068,138.469L95.068,138.469z"/>
	<path fill="#FFFFFF" d="M152.877,53.834c0.02-0.377,0.057-0.751,0.057-1.134c0-10.845-8.791-19.634-19.635-19.634
		c-4.938,0-9.439,1.837-12.891,4.848C115.25,18.467,97.537,4.134,76.467,4.134C51.355,4.134,31,24.489,31,49.6
		c0,1.488,0.077,2.957,0.216,4.409C15.949,55.938,4.134,68.943,4.134,84.733c0,17.12,13.879,31,31,31h11.744
		c2.323,4.884,7.288,8.267,13.056,8.267c2.729,0,5.27-0.769,7.449-2.08c6.812,7.602,16.673,12.414,27.684,12.414
		c13.76,0,25.747-7.491,32.184-18.601h23.617c17.119,0,30.998-13.88,30.998-31C181.866,68.291,169.055,54.875,152.877,53.834z"/>
	<g>
		<path fill="#666666" d="M15.42,94.155v-3.123h5.542V78.068H15.42v-3.123h14.173v3.123h-5.441v12.964h5.441v3.123H15.42z"/>
		<path fill="#666666" d="M50.28,78.068v16.087h-2.955L38.66,80.453v10.579h3.258v3.123h-8.9v-3.123h2.552V78.068h-2.552v-3.123
			h6.012l8.161,13.333v-10.21h-3.124v-3.123h8.799v3.123H50.28z"/>
		<path fill="#666666" d="M68.482,82.267v-4.198h-4.097v12.964h4.063v3.123H57.231v-3.123h4.03V78.068h-4.097v4.198h-3.124v-7.321
			h17.565v7.321H68.482z"/>
		<path fill="#666666" d="M74.459,94.155v-3.123h2.653V78.068h-2.586v-3.123h16.826v7.119h-3.123v-3.996h-8.027v4.769h3.56v-2.216
			h3.124v7.522h-3.124v-2.217h-3.56v5.105h8.027v-3.896h3.123v7.02H74.459z"/>
		<path fill="#666666" d="M107.909,94.155c-0.537-1.176-1.275-2.418-2.082-3.526l-2.955-4.098h-2.586v4.501h2.484v3.123h-8.228
			v-3.123h2.653V78.068h-2.519v-3.123h9.134c1.377,0,2.855,0.101,4.031,0.772c1.779,1.007,2.652,2.888,2.652,4.869
			c0,2.385-1.41,4.399-3.156,4.938l-1.311,0.402l3.861,5.105h2.52v3.123H107.909z M104.45,78.068h-4.164v5.34h3.021
			c1.479,0,4.131-0.135,4.131-2.787C107.438,78.169,105.29,78.068,104.45,78.068z"/>
		<path fill="#666666" d="M130.879,78.068v16.087h-2.955l-8.666-13.702v10.579h3.258v3.123h-8.9v-3.123h2.553V78.068h-2.553v-3.123
			h6.012l8.162,13.333v-10.21h-3.123v-3.123h8.799v3.123H130.879z"/>
		<path fill="#666666" d="M134.909,94.155v-3.123h2.654V78.068h-2.586v-3.123h16.824v7.119h-3.123v-3.996h-8.025v4.769h3.559v-2.216
			h3.123v7.522h-3.123v-2.217h-3.559v5.105h8.025v-3.896h3.123v7.02H134.909z"/>
		<path fill="#666666" d="M169.231,82.267v-4.198h-4.098v12.964h4.064v3.123h-11.217v-3.123h4.029V78.068h-4.098v4.198h-3.123
			v-7.321h17.564v7.321H169.231z"/>
	</g>
</g>
</svg>
