<?xml version="1.0" encoding="utf-8"?>
<!-- Generator: Adobe Illustrator 13.0.2, SVG Export Plug-In . SVG Version: 6.00 Build 14948)  -->
<!DOCTYPE svg PUBLIC "-//W3C//DTD SVG 1.1 Tiny//EN" "http://www.w3.org/Graphics/SVG/1.1/DTD/svg11-tiny.dtd">
<svg version="1.1" baseProfile="tiny" id="Layer_1" xmlns="http://www.w3.org/2000/svg" xmlns:xlink="http://www.w3.org/1999/xlink"
	 x="0px" y="0px" width="190px" height="190px" viewBox="0 0 190 190" xml:space="preserve">
<path fill="#666666" d="M97.068,166.223c-10.653,0-20.903-4.174-28.585-11.538c-2.09,0.795-4.309,1.205-6.549,1.205
	c-6.221,0-12.024-3.173-15.446-8.267h-9.353C17.761,147.624,2,131.861,2,112.488c0-16.334,11.311-30.378,26.879-34.127
	c-0.008-0.333-0.012-0.67-0.012-1.004c0-27.352,22.25-49.603,49.601-49.603c20.558,0,38.809,12.688,46.173,31.467
	c3.287-1.654,6.935-2.535,10.658-2.535c12.246,0,22.362,9.311,23.631,21.226C175.51,80.805,188,95.318,188,112.488
	c0,19.373-15.763,35.136-35.136,35.136H131.55C123.924,159.151,110.928,166.223,97.068,166.223L97.068,166.223z"/>
<path fill="#FFFFFF" d="M154.877,81.589c0.021-0.377,0.057-0.751,0.057-1.134c0-10.845-8.79-19.634-19.634-19.634
	c-4.938,0-9.439,1.837-12.891,4.848c-5.158-19.447-22.872-33.781-43.942-33.781C53.355,31.888,33,52.244,33,77.354
	c0,1.488,0.077,2.957,0.216,4.409C17.949,83.692,6.134,96.698,6.134,112.488c0,17.12,13.879,31,31,31h11.744
	c2.323,4.884,7.288,8.267,13.056,8.267c2.729,0,5.27-0.769,7.449-2.08c6.812,7.602,16.673,12.414,27.684,12.414
	c13.761,0,25.747-7.491,32.184-18.601h23.617c17.12,0,30.999-13.88,30.999-31C183.866,96.045,171.056,82.629,154.877,81.589z"/>
<g>
	<path fill="#666666" d="M17.42,121.91v-3.123h5.542v-12.964H17.42V102.7h14.173v3.123h-5.441v12.964h5.441v3.123H17.42z"/>
	<path fill="#666666" d="M52.28,105.823v16.087h-2.955l-8.665-13.702v10.579h3.258v3.123h-8.9v-3.123h2.552v-12.964h-2.552V102.7
		h6.012l8.161,13.333v-10.21h-3.124V102.7h8.799v3.123H52.28z"/>
	<path fill="#666666" d="M70.482,110.021v-4.198h-4.097v12.964h4.063v3.123H59.231v-3.123h4.03v-12.964h-4.097v4.198h-3.124V102.7
		h17.565v7.321H70.482z"/>
	<path fill="#666666" d="M76.459,121.91v-3.123h2.653v-12.964h-2.586V102.7h16.826v7.119h-3.123v-3.996h-8.027v4.769h3.56v-2.216
		h3.124v7.522h-3.124v-2.217h-3.56v5.105h8.027v-3.896h3.123v7.02H76.459z"/>
	<path fill="#666666" d="M109.908,121.91c-0.537-1.176-1.275-2.418-2.082-3.526l-2.955-4.098h-2.586v4.501h2.485v3.123h-8.229
		v-3.123h2.653v-12.964h-2.519V102.7h9.135c1.377,0,2.854,0.101,4.03,0.772c1.779,1.007,2.653,2.888,2.653,4.869
		c0,2.385-1.411,4.399-3.157,4.938l-1.31,0.402l3.861,5.105h2.52v3.123H109.908z M106.449,105.823h-4.164v5.34h3.022
		c1.478,0,4.131-0.135,4.131-2.787C109.438,105.923,107.289,105.823,106.449,105.823z"/>
	<path fill="#666666" d="M132.879,105.823v16.087h-2.955l-8.665-13.702v10.579h3.258v3.123h-8.9v-3.123h2.553v-12.964h-2.553V102.7
		h6.012l8.161,13.333v-10.21h-3.123V102.7h8.799v3.123H132.879z"/>
	<path fill="#666666" d="M136.909,121.91v-3.123h2.653v-12.964h-2.586V102.7h16.825v7.119h-3.123v-3.996h-8.026v4.769h3.56v-2.216
		h3.123v7.522h-3.123v-2.217h-3.56v5.105h8.026v-3.896h3.123v7.02H136.909z"/>
	<path fill="#666666" d="M171.231,110.021v-4.198h-4.098v12.964h4.063v3.123H159.98v-3.123h4.03v-12.964h-4.098v4.198h-3.123V102.7
		h17.564v7.321H171.231z"/>
</g>
</svg>
