<?xml version="1.0" encoding="utf-8"?>
<!-- Generator: Adobe Illustrator 13.0.2, SVG Export Plug-In . SVG Version: 6.00 Build 14948)  -->
<!DOCTYPE svg PUBLIC "-//W3C//DTD SVG 1.1 Tiny//EN" "http://www.w3.org/Graphics/SVG/1.1/DTD/svg11-tiny.dtd">
<svg version="1.1" baseProfile="tiny" id="Layer_1" xmlns="http://www.w3.org/2000/svg" xmlns:xlink="http://www.w3.org/1999/xlink"
	 x="0px" y="0px" width="210px" height="210px" viewBox="0 0 210 210" xml:space="preserve">
<g>
	<path fill="#666666" d="M107.068,174.234c-10.653,0-20.903-4.174-28.586-11.537c-2.09,0.795-4.309,1.205-6.549,1.205
		c-6.221,0-12.024-3.174-15.446-8.268h-9.353C27.761,155.634,12,139.873,12,120.5c0-16.334,11.311-30.379,26.879-34.127
		c-0.008-0.333-0.012-0.67-0.012-1.004c0-27.352,22.25-49.603,49.601-49.603c20.559,0,38.81,12.688,46.173,31.467
		c3.287-1.654,6.936-2.535,10.658-2.535c12.246,0,22.363,9.311,23.631,21.226C185.51,88.816,198,103.33,198,120.5
		c0,19.373-15.764,35.135-35.137,35.135h-21.314C133.924,167.162,120.928,174.234,107.068,174.234L107.068,174.234z"/>
	<path fill="#FFFFFF" d="M164.877,89.6c0.02-0.377,0.057-0.751,0.057-1.134c0-10.845-8.791-19.634-19.635-19.634
		c-4.938,0-9.439,1.837-12.891,4.848c-5.158-19.447-22.871-33.781-43.941-33.781C63.355,39.899,43,60.255,43,85.365
		c0,1.488,0.076,2.957,0.216,4.409c-15.267,1.929-27.082,14.935-27.082,30.726c0,17.119,13.879,31,30.999,31h11.744
		c2.323,4.883,7.288,8.266,13.057,8.266c2.729,0,5.27-0.768,7.448-2.08c6.812,7.602,16.674,12.414,27.685,12.414
		c13.76,0,25.746-7.49,32.184-18.6h23.617c17.119,0,30.998-13.881,30.998-31C193.865,104.056,181.055,90.641,164.877,89.6z"/>
	<g>
		<path fill="#666666" d="M27.42,129.921v-3.123h5.542v-12.964H27.42v-3.123h14.173v3.123h-5.441v12.964h5.441v3.123H27.42z"/>
		<path fill="#666666" d="M62.28,113.834v16.087h-2.955l-8.665-13.702v10.579h3.258v3.123h-8.9v-3.123h2.552v-12.964h-2.552v-3.123
			h6.012l8.161,13.333v-10.21h-3.124v-3.123h8.799v3.123H62.28z"/>
		<path fill="#666666" d="M80.481,118.033v-4.198h-4.097v12.964h4.063v3.123H69.23v-3.123h4.03v-12.964h-4.097v4.198H66.04v-7.321
			h17.565v7.321H80.481z"/>
		<path fill="#666666" d="M86.458,129.921v-3.123h2.653v-12.964h-2.586v-3.123h16.826v7.119h-3.123v-3.996h-8.027v4.769h3.56v-2.216
			h3.124v7.522h-3.124v-2.217h-3.56v5.105h8.027v-3.896h3.123v7.02H86.458z"/>
		<path fill="#666666" d="M119.908,129.921c-0.537-1.176-1.275-2.418-2.082-3.526l-2.955-4.098h-2.586v4.501h2.484v3.123h-8.228
			v-3.123h2.653v-12.964h-2.519v-3.123h9.134c1.377,0,2.855,0.101,4.031,0.772c1.779,1.007,2.652,2.888,2.652,4.869
			c0,2.385-1.41,4.399-3.156,4.938l-1.311,0.402l3.861,5.105h2.52v3.123H119.908z M116.449,113.834h-4.164v5.34h3.021
			c1.479,0,4.131-0.135,4.131-2.787C119.438,113.935,117.289,113.834,116.449,113.834z"/>
		<path fill="#666666" d="M142.879,113.834v16.087h-2.955l-8.666-13.702v10.579h3.258v3.123h-8.9v-3.123h2.553v-12.964h-2.553
			v-3.123h6.012l8.162,13.333v-10.21h-3.123v-3.123h8.799v3.123H142.879z"/>
		<path fill="#666666" d="M146.908,129.921v-3.123h2.654v-12.964h-2.586v-3.123h16.824v7.119h-3.123v-3.996h-8.025v4.769h3.559
			v-2.216h3.123v7.522h-3.123v-2.217h-3.559v5.105h8.025v-3.896h3.123v7.02H146.908z"/>
		<path fill="#666666" d="M181.23,118.033v-4.198h-4.098v12.964h4.064v3.123H169.98v-3.123h4.029v-12.964h-4.098v4.198h-3.123
			v-7.321h17.564v7.321H181.23z"/>
	</g>
</g>
</svg>
