<?xml version="1.0" encoding="utf-8"?>
<!-- Generator: Adobe Illustrator 13.0.2, SVG Export Plug-In . SVG Version: 6.00 Build 14948)  -->
<!DOCTYPE svg PUBLIC "-//W3C//DTD SVG 1.1 Tiny//EN" "http://www.w3.org/Graphics/SVG/1.1/DTD/svg11-tiny.dtd">
<svg version="1.1" baseProfile="tiny" id="Layer_1" xmlns="http://www.w3.org/2000/svg" xmlns:xlink="http://www.w3.org/1999/xlink"
	 x="0px" y="0px" width="160.393px" height="117.999px" viewBox="0 0 160.393 117.999" xml:space="preserve">
<g>
	<g>
		<path fill="#666666" d="M139.852,10c0-5.5-4.5-10-10-10H29.851c-5.5,0-10,4.5-10,10v70h120L139.852,10z"/>
		<rect x="21.852" y="10" fill="#FFFFFF" width="116" height="61"/>
		<circle fill="#FFFFFF" cx="79.851" cy="5" r="2.001"/>
	</g>
	<g>
		<g>
			<path fill="#666666" d="M160.29,107.354c0.178-0.388,0.133-0.801-0.189-1.23L139.85,79h-120l-19.5,27.124
				c-0.189,0.264-0.278,0.522-0.276,0.771H0v8.265h0.125c0.452,1.632,4.921,2.839,11.226,2.839h137.857
				c7.18,0,11.947-1.564,11.082-3.54V107.354z"/>
			<path fill="#FFFFFF" d="M141.35,86.362c0.451,0.643-0.666,1.162-2.496,1.162s-3.639-0.52-4.043-1.162s0.715-1.162,2.496-1.162
				C139.09,85.2,140.899,85.72,141.35,86.362z"/>
		</g>
		<path fill="#FFFFFF" d="M101.321,107.286c0.131,0.64-1.598,1.163-3.84,1.163H62.13c-2.244,0-3.982-0.523-3.863-1.163l1.008-5.425
			c0.117-0.639,1.922-1.162,4.01-1.162h32.89c2.088,0,3.902,0.523,4.033,1.162L101.321,107.286z"/>
		<polygon fill="#FFFFFF" points="138.28,99.149 21.149,99.149 29.458,84.425 129.684,84.425 		"/>
		<polygon fill="#666666" points="105.805,106.286 56.024,106.286 56.104,105.899 105.709,105.899 		"/>
	</g>
</g>
</svg>
