<?xml version="1.0" encoding="utf-8"?>
<!-- Generator: Adobe Illustrator 13.0.2, SVG Export Plug-In . SVG Version: 6.00 Build 14948)  -->
<!DOCTYPE svg PUBLIC "-//W3C//DTD SVG 1.1 Tiny//EN" "http://www.w3.org/Graphics/SVG/1.1/DTD/svg11-tiny.dtd">
<svg version="1.1" baseProfile="tiny" id="Layer_1" xmlns="http://www.w3.org/2000/svg" xmlns:xlink="http://www.w3.org/1999/xlink"
	 x="0px" y="0px" width="168px" height="168px" viewBox="0 0 168 168" xml:space="preserve">
<g>
	<g>
		<path fill="#666666" d="M143.656,35c0-5.5-4.5-10-10-10H33.654c-5.5,0-10,4.5-10,10v70h120L143.656,35z"/>
		<rect x="25.655" y="35" fill="#FFFFFF" width="116.001" height="61"/>
		<circle fill="#FFFFFF" cx="83.655" cy="30" r="2.001"/>
	</g>
	<g>
		<g>
			<path fill="#666666" d="M164.094,132.355c0.178-0.388,0.133-0.801-0.189-1.23L143.654,104h-120l-19.5,27.124
				c-0.189,0.264-0.278,0.522-0.276,0.771H3.803v8.265h0.125C4.38,141.792,8.849,143,15.154,143h137.858
				c7.18,0,11.947-1.564,11.082-3.54V132.355z"/>
			<path fill="#FFFFFF" d="M145.154,111.363c0.451,0.643-0.666,1.162-2.496,1.162s-3.639-0.52-4.043-1.162s0.715-1.162,2.496-1.162
				C142.895,110.201,144.703,110.72,145.154,111.363z"/>
		</g>
		<path fill="#FFFFFF" d="M105.125,132.287c0.131,0.64-1.598,1.163-3.84,1.163H65.933c-2.244,0-3.982-0.523-3.863-1.163l1.008-5.425
			c0.117-0.639,1.922-1.162,4.01-1.162h32.891c2.088,0,3.902,0.523,4.033,1.162L105.125,132.287z"/>
		<polygon fill="#FFFFFF" points="142.084,124.15 24.953,124.15 33.261,109.425 133.488,109.425 		"/>
		<polygon fill="#666666" points="109.609,131.287 59.828,131.287 59.908,130.9 109.514,130.9 		"/>
	</g>
</g>
</svg>
