<?xml version="1.0" encoding="utf-8"?>
<!-- Generator: Adobe Illustrator 13.0.2, SVG Export Plug-In . SVG Version: 6.00 Build 14948)  -->
<!DOCTYPE svg PUBLIC "-//W3C//DTD SVG 1.1 Tiny//EN" "http://www.w3.org/Graphics/SVG/1.1/DTD/svg11-tiny.dtd">
<svg version="1.1" baseProfile="tiny" id="Layer_1" xmlns="http://www.w3.org/2000/svg" xmlns:xlink="http://www.w3.org/1999/xlink"
	 x="0px" y="0px" width="164.221px" height="121.997px" viewBox="0 0 164.221 121.997" xml:space="preserve">
<g>
	<path fill="#666666" d="M151.133,121.997H13.276c-4.466,0-12.115-0.559-13.154-4.304l-0.071-0.257v-0.266L0,108.907
		c-0.006-0.675,0.219-1.351,0.653-1.953l19.124-26.601V11.999C19.777,5.382,25.159,0,31.776,0h100.002c6.617,0,12,5.382,12,11.999
		l-0.002,68.334l19.852,26.594c0.619,0.775,0.602,1.681,0.59,2.225l-0.004,0.202v7.105
		C164.213,119.979,159.446,121.997,151.133,121.997L151.133,121.997z"/>
	<path fill="#FFFFFF" d="M162.215,116.458v-7.104c0-0.5,0.061-0.917-0.189-1.23l-20.25-27.124l0.002-69c0-5.5-4.5-10-10-10H31.776
		c-5.5,0-10,4.5-10,10v69l-19.5,27.124c-0.189,0.264-0.278,0.522-0.276,0.771l0.051,8.265c0.452,1.632,4.921,2.839,11.226,2.839
		h137.857C158.313,119.998,162.215,118.374,162.215,116.458z M81.776,4.999c1.105,0,2.002,0.896,2.002,2s-0.896,2-2.002,2
		c-1.104,0-2-0.896-2-2S80.672,4.999,81.776,4.999z M23.777,11.999h116.001v61H23.777V11.999z M99.407,110.448H64.055
		c-2.244,0-3.982-0.523-3.863-1.163l0.186-1h42.664l0.205,1C103.377,109.925,101.649,110.448,99.407,110.448z M60.45,107.898
		l0.75-4.038c0.117-0.639,1.922-1.162,4.01-1.162H98.1c2.088,0,3.902,0.523,4.033,1.162l0.828,4.038H60.45z M23.075,101.148
		l8.309-14.725H131.61l8.596,14.725H23.075z M140.78,89.523c-1.83,0-3.639-0.52-4.043-1.162s0.715-1.162,2.496-1.162
		c1.783,0,3.592,0.52,4.043,1.162S142.61,89.523,140.78,89.523z"/>
</g>
</svg>
