<?xml version="1.0" encoding="utf-8"?>
<!-- Generator: Adobe Illustrator 13.0.2, SVG Export Plug-In . SVG Version: 6.00 Build 14948)  -->
<!DOCTYPE svg PUBLIC "-//W3C//DTD SVG 1.1 Tiny//EN" "http://www.w3.org/Graphics/SVG/1.1/DTD/svg11-tiny.dtd">
<svg version="1.1" baseProfile="tiny" id="Layer_1" xmlns="http://www.w3.org/2000/svg" xmlns:xlink="http://www.w3.org/1999/xlink"
	 x="0px" y="0px" width="180px" height="180px" viewBox="0 0 180 180" xml:space="preserve">
<path fill="#FFFFFF" d="M90,173c-45.766,0-83-37.233-83-83c0-45.766,37.235-83,83-83c45.766,0,83,37.234,83,83
	C173,135.767,135.766,173,90,173L90,173z M90,34c-30.878,0-55.998,25.122-55.998,56S59.121,145.999,90,145.999
	c30.879,0,56-25.12,56-55.999S120.879,34,90,34L90,34z"/>
<path fill="#00FF00" d="M90,11c-43.631,0-79,35.37-79,79c0,43.631,35.369,79,79,79s79-35.369,79-79C169,46.37,133.631,11,90,11z
	 M90,150c-33.137,0-60-26.863-60-60c0-33.137,26.863-60,60-60s60,26.863,60,60C150,123.137,123.137,150,90,150z"/>
</svg>
