<?xml version="1.0" encoding="utf-8"?>
<!-- Generator: Adobe Illustrator 13.0.2, SVG Export Plug-In . SVG Version: 6.00 Build 14948)  -->
<!DOCTYPE svg PUBLIC "-//W3C//DTD SVG 1.1 Tiny//EN" "http://www.w3.org/Graphics/SVG/1.1/DTD/svg11-tiny.dtd">
<svg version="1.1" baseProfile="tiny" id="Layer_1" xmlns="http://www.w3.org/2000/svg" xmlns:xlink="http://www.w3.org/1999/xlink"
	 x="0px" y="0px" width="44.997px" height="74.518px" viewBox="0 0 44.997 74.518" xml:space="preserve">
<g>
	<path fill="#FFFF00" d="M37.259,74.518H7.738C3.471,74.518,0,71.046,0,66.778V14.299c0-3.577,2.438-6.594,5.739-7.477V4.458
		C5.739,1.999,7.738,0,10.198,0c2.459,0,4.458,1.999,4.458,4.458v2.103h22.603c4.268,0,7.738,3.472,7.738,7.739v52.479
		C44.997,71.046,41.526,74.518,37.259,74.518L37.259,74.518z"/>
	<path fill="#666666" d="M37.258,8.56h-24.6V4.459c0-1.358-1.102-2.46-2.461-2.46c-1.357,0-2.459,1.102-2.459,2.46V8.56
		c-3.157,0-5.74,2.583-5.74,5.74v52.479c0,3.158,2.583,5.74,5.74,5.74h29.52c3.156,0,5.74-2.582,5.74-5.74V14.299
		C42.998,11.142,40.414,8.56,37.258,8.56z M19.219,11.839h6.56c0.453,0,0.819,0.367,0.819,0.82c0,0.453-0.366,0.82-0.819,0.82h-6.56
		c-0.453,0-0.82-0.367-0.82-0.82C18.398,12.207,18.766,11.839,19.219,11.839z M22.498,70.06c-1.812,0-3.279-1.469-3.279-3.281
		c0-1.811,1.468-3.279,3.279-3.279s3.28,1.469,3.28,3.279C25.778,68.591,24.31,70.06,22.498,70.06z M41.358,61.858H3.638V15.939
		h37.721V61.858z"/>
	<path fill="#666666" d="M40.538,59.399c0,0.453-0.367,0.82-0.819,0.82l0,0c-0.453,0-0.82-0.367-0.82-0.82v-41
		c0-0.453,0.367-0.82,0.82-0.82l0,0c0.452,0,0.819,0.367,0.819,0.82V59.399z"/>
</g>
</svg>
