<?xml version="1.0" encoding="utf-8"?>
<!-- Generator: Adobe Illustrator 13.0.2, SVG Export Plug-In . SVG Version: 6.00 Build 14948)  -->
<!DOCTYPE svg PUBLIC "-//W3C//DTD SVG 1.1 Tiny//EN" "http://www.w3.org/Graphics/SVG/1.1/DTD/svg11-tiny.dtd">
<svg version="1.1" baseProfile="tiny" id="Layer_1" xmlns="http://www.w3.org/2000/svg" xmlns:xlink="http://www.w3.org/1999/xlink"
	 x="0px" y="0px" width="41px" height="70.52px" viewBox="0 0 41 70.52" xml:space="preserve">
<g>
	<path fill="#666666" d="M10.66,9.84c0,1.359-1.102,2.46-2.461,2.46l0,0c-1.357,0-2.459-1.102-2.459-2.46V2.46
		C5.74,1.102,6.842,0,8.199,0l0,0c1.359,0,2.461,1.102,2.461,2.46V9.84z"/>
	<path fill="#666666" d="M41,64.779c0,3.158-2.584,5.74-5.74,5.74H5.74c-3.157,0-5.74-2.582-5.74-5.74V12.3
		c0-3.157,2.583-5.74,5.74-5.74h29.52c3.156,0,5.74,2.583,5.74,5.74V64.779z"/>
	<circle fill="#FFFFFF" cx="20.5" cy="64.779" r="3.28"/>
	<rect x="1.64" y="13.94" fill="#FFFFFF" width="37.721" height="45.919"/>
	<path fill="#FFFFFF" d="M24.6,10.66c0,0.453-0.366,0.82-0.819,0.82h-6.56c-0.453,0-0.82-0.367-0.82-0.82l0,0
		c0-0.453,0.367-0.82,0.82-0.82h6.56C24.233,9.84,24.6,10.208,24.6,10.66L24.6,10.66z"/>
	<path fill="#666666" d="M38.54,57.4c0,0.453-0.367,0.82-0.819,0.82l0,0c-0.453,0-0.82-0.367-0.82-0.82v-41
		c0-0.453,0.367-0.82,0.82-0.82l0,0c0.452,0,0.819,0.367,0.819,0.82V57.4z"/>
</g>
</svg>
