<?xml version="1.0" encoding="utf-8"?>
<!-- Generator: Adobe Illustrator 13.0.2, SVG Export Plug-In . SVG Version: 6.00 Build 14948)  -->
<!DOCTYPE svg PUBLIC "-//W3C//DTD SVG 1.1 Tiny//EN" "http://www.w3.org/Graphics/SVG/1.1/DTD/svg11-tiny.dtd">
<svg version="1.1" baseProfile="tiny" id="Layer_1" xmlns="http://www.w3.org/2000/svg" xmlns:xlink="http://www.w3.org/1999/xlink"
	 x="0px" y="0px" width="81px" height="80px" viewBox="0 0 81 80" xml:space="preserve">
<g>
	<path fill="#666666" d="M30.66,14.58c0,1.358-1.102,2.46-2.461,2.46l0,0c-1.357,0-2.459-1.102-2.459-2.46V7.2
		c0-1.358,1.102-2.46,2.459-2.46l0,0c1.359,0,2.461,1.102,2.461,2.46V14.58z"/>
	<path fill="#666666" d="M61,69.52c0,3.158-2.584,5.74-5.74,5.74H25.74c-3.157,0-5.74-2.582-5.74-5.74V17.04
		c0-3.157,2.583-5.739,5.74-5.739h29.52c3.156,0,5.74,2.582,5.74,5.739V69.52z"/>
	<circle fill="#FFFFFF" cx="40.5" cy="69.52" r="3.28"/>
	<rect x="21.64" y="18.681" fill="#FFFFFF" width="37.721" height="45.919"/>
	<path fill="#FFFFFF" d="M44.6,15.4c0,0.453-0.366,0.82-0.819,0.82h-6.56c-0.453,0-0.82-0.367-0.82-0.82l0,0
		c0-0.453,0.367-0.82,0.82-0.82h6.56C44.233,14.58,44.6,14.947,44.6,15.4L44.6,15.4z"/>
	<path fill="#666666" d="M58.54,62.141c0,0.453-0.367,0.82-0.819,0.82l0,0c-0.453,0-0.82-0.367-0.82-0.82v-41
		c0-0.453,0.367-0.82,0.82-0.82l0,0c0.452,0,0.819,0.367,0.819,0.82V62.141z"/>
</g>
</svg>
