<?xml version="1.0" encoding="utf-8"?>
<!-- Generator: Adobe Illustrator 13.0.2, SVG Export Plug-In . SVG Version: 6.00 Build 14948)  -->
<!DOCTYPE svg PUBLIC "-//W3C//DTD SVG 1.1 Tiny//EN" "http://www.w3.org/Graphics/SVG/1.1/DTD/svg11-tiny.dtd">
<svg version="1.1" baseProfile="tiny" id="Layer_1" xmlns="http://www.w3.org/2000/svg" xmlns:xlink="http://www.w3.org/1999/xlink"
	 x="0px" y="0px" width="90px" height="90px" viewBox="0 0 90 90" xml:space="preserve">
<path fill="#666666" d="M33,14c0,1.657-1.343,3-3,3l0,0c-1.657,0-3-1.343-3-3V5c0-1.657,1.343-3,3-3l0,0c1.657,0,3,1.343,3,3V14z"/>
<path fill="#666666" d="M70,81c0,3.85-3.15,7-7,7H27c-3.85,0-7-3.15-7-7v-64c0-3.85,3.15-7,7-7h36c3.85,0,7,3.15,7,7V81z"/>
<circle fill="#FFFFFF" cx="45" cy="81" r="4"/>
<rect x="22" y="19.001" fill="#FFFFFF" width="46" height="56"/>
<path fill="#FFFFFF" d="M50,15.001c0,0.552-0.447,1-1,1h-8c-0.552,0-1-0.448-1-1l0,0c0-0.552,0.448-1,1-1h8
	C49.553,14.001,50,14.449,50,15.001L50,15.001z"/>
<path fill="#666666" d="M25,72c0,0.553-0.448,1-1,1l0,0c-0.552,0-1-0.447-1-1v-50c0-0.552,0.448-1,1-1l0,0c0.552,0,1,0.448,1,1V72z"
	/>
</svg>
