<?xml version="1.0" encoding="utf-8"?>
<!-- Generator: Adobe Illustrator 13.0.2, SVG Export Plug-In . SVG Version: 6.00 Build 14948)  -->
<!DOCTYPE svg PUBLIC "-//W3C//DTD SVG 1.1 Tiny//EN" "http://www.w3.org/Graphics/SVG/1.1/DTD/svg11-tiny.dtd">
<svg version="1.1" baseProfile="tiny" id="Layer_1" xmlns="http://www.w3.org/2000/svg" xmlns:xlink="http://www.w3.org/1999/xlink"
	 x="0px" y="0px" width="243.999px" height="44px" viewBox="0 0 243.999 44" xml:space="preserve">
<g>
	<path fill="#666666" d="M240.001,44h-236C1.795,44,0,42.207,0,40.002V4.001C0,1.796,1.795,0,4.001,0h236
		c2.205,0,3.998,1.796,3.998,4.001v36.001C243.999,42.207,242.206,44,240.001,44L240.001,44z"/>
	<rect x="229" y="18.001" fill="#FFFFFF" width="4" height="1"/>
	<rect x="229" y="32.001" fill="#FFFFFF" width="4" height="1"/>
	<rect x="176" y="18.001" fill="#FFFFFF" width="4" height="1"/>
	<rect x="176" y="32.001" fill="#FFFFFF" width="4" height="1"/>
	<rect x="123" y="18.001" fill="#FFFFFF" width="4" height="1"/>
	<path fill="#FFFFFF" d="M12.999,24h1v-1h-1V24z M53,32.002h1v-1h-1V32.002z M69,10.002h-1v1h1V10.002z M40.999,14.001h1v-1h-1
		V14.001z M69,22.002h-1v1h1V22.002z M53,24.002h1v-1h-1V24.002z M40.999,18.001h1v-1h-1V18.001z M64.999,16.003H64v1h1v0.998h0.999
		v-1h-1V16.003z M12.999,20h1v-1h-1V20z M40.999,20.001h1v-1h-1V20.001z M40.999,16.001h1v-1h-1V16.001z M53,30.002h1v-1h-1V30.002z
		 M12.999,26h1v-1h-1V26z M12.999,28h1v-1h-1V28z M12.999,16h1v-1h-1V16z M40.999,9.001v1h1v-1H40.999z M69,24.002h-1v1h1V24.002z
		 M12.999,14h1v-1h-1V14z M69,18.002h-1v1h1V18.002z M53,26.002h1v-1h-1V26.002z M12.999,18h1v-1h-1V18z M69,14.002h-1v1h1V14.002z
		 M69,12.002h-1v1h1V12.002z M40.999,12.001h1v-1h-1V12.001z M12.999,22h1v-1h-1V22z M12.999,12h1v-1h-1V12z M69,20.002h-1v1h1
		V20.002z M12.999,9v1h1V9H12.999z M69,16.002h-1v1h1V16.002z M16.998,26.001h-0.999v1h1v0.998h0.999v-1h-1V26.001z M16.998,18.001
		h-0.999v1h1v0.998h0.999v-1h-1V18.001z M40.999,26.001h-1v1h1V26.001z M40.999,24.001h-1v1h1V24.001z M16.998,24.001h-0.999v1h1
		v0.998h0.999v-1h-1V24.001z M16.998,22.001h-0.999v1h1v0.998h0.999v-1h-1V22.001z M16.998,16.001h-0.999v1h1v0.998h0.999v-1h-1
		V16.001z M40.999,28.001h-1v1h1V28.001z M28.999,12h1v-1h-1V12z M16.998,20.001h-0.999v1h1v0.998h0.999v-1h-1V20.001z
		 M16.998,10.001h-0.999v1h1v0.998h0.999v-1h-1V10.001z M40.999,22.001h-1v1h1V22.001z M64.999,14.003H64v1h1v0.998h0.999v-1h-1
		V14.003z M28.999,14h1v-1h-1V14z M64.999,12.003H64v1h1v0.998h0.999v-1h-1V12.003z M40.999,22.001h1v-1h-1V22.001z M64.999,10.003
		H64v1h1v0.998h0.999v-1h-1V10.003z M48.999,32.003H48v1h1v0.998h0.999v-1h-1V32.003z M16.998,12.001h-0.999v1h1v0.998h0.999v-1h-1
		V12.001z M16.998,14.001h-0.999v1h1v0.998h0.999v-1h-1V14.001z M40.999,30.001h1v-1h-1V30.001z M52,34.002v1h1v-1H52z
		 M40.999,32.001h1v-1h-1V32.001z M53,32.002h-1v1h1V32.002z M40.999,24.001h1v-1h-1V24.001z M53,34.002h1v-1h-1V34.002z
		 M40.999,34.001h1v-1h-1V34.001z M40.999,26.001h1v-1h-1V26.001z M40.999,28.001h1v-1h-1V28.001z M56.999,32.003H56v1h1v0.998
		h0.999v-1h-1V32.003z M40.999,30.001h-1v1h1V30.001z M39.999,34.001v1h1v-1H39.999z M36.999,10h-1v1h1V10z M28.999,9v1h1V9H28.999z
		 M16.998,30.001h-0.999v1h1v0.998h0.999v-1h-1V30.001z M53,30.002h-1v1h1V30.002z M40.999,32.001h-1v1h1V32.001z M16.998,32.001
		h-0.999v1h1v0.998h0.999v-1h-1V32.001z M53,28.002h1v-1h-1V28.002z M45,24.002h1v-1h-1V24.002z M32.998,30.001h-0.999v1h1v0.998
		h0.999v-1h-1V30.001z M45,22.002h1v-1h-1V22.002z M32.998,20.001h-0.999v1h1v0.998h0.999v-1h-1V20.001z M45,26.002h1v-1h-1V26.002z
		 M32.998,18.001h-0.999v1h1v0.998h0.999v-1h-1V18.001z M53,9.002v1h1v-1H53z M45,10.002h-1v1h1V10.002z M32.998,28.001h-0.999v1h1
		v0.998h0.999v-1h-1V28.001z M69,9.002v1h1v-1H69z M69,14.002h1v-1h-1V14.002z M45,16.002h1v-1h-1V16.002z M69,16.002h1v-1h-1
		V16.002z M45,20.002h1v-1h-1V20.002z M53,16.002h1v-1h-1V16.002z M32.998,32.001h-0.999v1h1v0.998h0.999v-1h-1V32.001z M53,12.002
		h1v-1h-1V12.002z M45,18.002h1v-1h-1V18.002z M69,12.002h1v-1h-1V12.002z M45,28.002h1v-1h-1V28.002z M45,24.002h-1v1h1V24.002z
		 M44,34.002v1h1v-1H44z M45,26.002h-1v1h1V26.002z M32.998,24.001h-0.999v1h1v0.998h0.999v-1h-1V24.001z M45,22.002h-1v1h1V22.002z
		 M45,12.002h-1v1h1V12.002z M240,2.001H4c-1.1,0-2,0.9-2,2v36c0,1.1,0.9,2,2,2h236c1.101,0,2-0.9,2-2v-36
		C242,2.901,241.101,2.001,240,2.001z M10.998,9.999h-1v1h1v1h-1v1h1v1h-1v1h1v1h-1v1h1v1h-1v1h1v1h-1v1h1v1h-1v1h1v1h-1v1h1v1h-1v1
		h1v1h-1v1h1v1h-1v1h1v1h-1v1h1v1h-1v1h1v1h-1v-1h-1v-1h1v-1h-1v-1h1v-1h-1v-1h1v-1h-1v-1h1v-1h-1v-1h1v-1h-1v-1h1v-1h-1v-1h1v-1h-1
		v-1h1v-1h-1v-1h1v-1h-1v-1h1v-1h-1v-1h1v-1h-1v-1h1v-1h-1v-1h1v-1h-1v-1h1v1h1V9.999z M14.999,10h-1v1h1v1h-1v1h1v1h-1v1h1v1h-1v1
		h1v1h-1v1h1v1h-1v1h1v1h-1v1h1v1h-1v1h1v1h-1v1h1v1h-1v1h1v1h-1v1h1v1h-1v1h1v1h-1v1h1v1h-1v-1h-1v1h-1v-1h-1v-1h1v-1h-1v-1h1v-1
		h-1v-1h1v-1h-1v-1h1v-1h-1v-1h1v-1h-1v-1h1v-1h-1v-1h1v-1h-1v-1h1v-1h-1v-1h1v-1h-1v-1h1v-1h-1v-1h1v-1h-1v-1h1v-1h-1v-1h1V9h-1V8
		h1v1h1V8h1v1h1V10z M18.998,9.999h-1v1h1v1h-1v1h1v1h-1v1h1v1h-1v1h1v1h-1v1h1v1h-1v1h1v1h-1v1h1v1h-1v1h1v1h-1v1h1v1h-1v1h1v1h-1
		v1h1v1h-1v1h1v1h-1v1h1v1h-1v-1h-1v-0.998h-0.999v1h1v1h-1v-1h-1v-1h1v-1h-1v-1h1v-1h-1v-1h1v-1h-1v-1h1v-1h-1v-1h1v-1h-1v-1h1v-1
		h-1v-1h1v-1h-1v-1h1v-1h-1v-1h1v-1h-1v-1h1v-1h-1v-1h1v-1h-1v-1h1v-1h-1v-1h1v-1h-1v-1h1v1h1v0.998h0.999v-1h-1v-1h1v1h1V9.999z
		 M22.999,10h-1v1h1v1h-1v1h1v1h-1v1h1v1h-1v1h1v1h-1v1h1v1h-1v1h1v1h-1v1h1v1h-1v1h1v1h-1v1h1v1h-1v1h1v1h-1v1h1v1h-1v1h1v1h-1v1h1
		v1h-1v-1h-1v1h-1v-1h-1v-1h1v-1h-1v-1h1v-1h-1v-1h1v-1h-1v-1h1v-1h-1v-1h1v-1h-1v-1h1v-1h-1v-1h1v-1h-1v-1h1v-1h-1v-1h1v-1h-1v-1h1
		v-1h-1v-1h1v-1h-1v-1h1v-1h-1v-1h1V9h-1V8h1v1h1V8h1v1h1V10z M26.998,9.999h-1v1h1v1h-1v1h1v1h-1v1h1v1h-1v1h1v1h-1v1h1v1h-1v1h1v1
		h-1v1h1v1h-1v1h1v1h-1v1h1v1h-1v1h1v1h-1v1h1v1h-1v1h1v1h-1v1h1v1h-1v-1h-1v-0.998h-0.999v1h1v1h-1v-1h-1v-1h1v-1h-1v-1h1v-1h-1v-1
		h1v-1h-1v-1h1v-1h-1v-1h1v-1h-1v-1h1v-1h-1v-1h1v-1h-1v-1h1v-1h-1v-1h1v-1h-1v-1h1v-1h-1v-1h1v-1h-1v-1h1v-1h-1v-1h1v-1h-1v-1h1v1
		h1v0.998h0.999v-1h-1v-1h1v1h1V9.999z M30.999,10h-1v1h1v1h-1v1h1v1h-1v1h1v1h-1v1h1v1h-1v1h1v1h-1v1h1v1h-1v1h1v1h-1v1h1v1h-1v1h1
		v1h-1v1h1v1h-1v1h1v1h-1v1h1v1h-1v1h1v1h-1v-1h-1v1h-1v-1h-1v-1h1v-1h-1v-1h1v-1h-1v-1h1v-1h-1v-1h1v-1h-1v-1h1v-1h-1v-1h1v-1h-1
		v-1h1v-1h-1v-1h1v-1h-1v-1h1v-1h-1v-1h1v-1h-1v-1h1v-1h-1v-1h1v-1h-1v-1h1V9h-1V8h1v1h1V8h1v1h1V10z M34.998,9.999h-1v1h1v1h-1v1h1
		v1h-1v1h1v1h-1v1h1v1h-1v1h1v1h-1v1h1v1h-1v1h1v1h-1v1h1v1h-1v1h1v1h-1v1h1v1h-1v1h1v1h-1v1h1v1h-1v1h1v1h-1v-1h-1v-0.998h-0.999v1
		h1v1h-1v-1h-1v-1h1v-1h-1v-1h1v-1h-1v-1h1v-1h-1v-1h1v-1h-1v-1h1v-1h-1v-1h1v-1h-1v-1h1v-1h-1v-1h1v-1h-1v-1h1v-1h-1v-1h1v-1h-1v-1
		h1v-1h-1v-1h1v-1h-1v-1h1v-1h-1v-1h1v1h1v0.998h0.999v-1h-1v-1h1v1h1V9.999z M38.999,10h-1v1h1v1h-1v1h1v1h-1v1h1v1h-1v1h1v1h-1v1
		h1v1h-1v1h1v1h-1v1h1v1h-1v1h1v1h-1v1h1v1h-1v1h1v1h-1v1h1v1h-1v1h1v1h-1v1h1v1h-1v-1h-1v1h-1v-1h-1v-1h1v-1h-1v-1h1v-1h-1v-1h1v-1
		h-1v-1h1v-1h-1v-1h1v-1h-1v-1h1v-1h-1v-1h1v-1h-1v-1h1v-1h-1v-1h1v-1h-1v-1h1v-1h-1v-1h1v-1h-1v-1h1v-1h-1v-1h1V9h-1V8h1v1h1V8h1v1
		h1V10z M42.999,10.001h-1v1h1v1h-1v1h1v1h-1v1h1v1h-1v1h1v1h-1v1h1v1h-1v1h1v1h-1v1h1v1h-1v1h1v1h-1v1h1v1h-1v1h1v1h-1v1h1v1h-1v1
		h1v1h-1v1h1v1h-1v-1h-1v1h-1v-1h-1v-1h1v-1h-1v-1h1v-1h-1v-1h1v-1h-1v-1h1v-1h-1v-1h1v-1h-1v-1h1v-1h-1v-1h1v-1h-1v-1h1v-1h-1v-1h1
		v-1h-1v-1h1v-1h-1v-1h1v-1h-1v-1h1v-1h-1v-1h1v-1h-1v-1h1v1h1v-1h1v1h1V10.001z M47,10.002h-1v1h1v1h-1v1h1v1h-1v1h1v1h-1v1h1v1h-1
		v1h1v1h-1v1h1v1h-1v1h1v1h-1v1h1v1h-1v1h1v1h-1v1h1v1h-1v1h1v1h-1v1h1v1h-1v1h1v1h-1v-1h-1v1h-1v-1h-1v-1h1v-1h-1v-1h1v-1h-1v-1h1
		v-1h-1v-1h1v-1h-1v-1h1v-1h-1v-1h1v-1h-1v-1h1v-1h-1v-1h1v-1h-1v-1h1v-1h-1v-1h1v-1h-1v-1h1v-1h-1v-1h1v-1h-1v-1h1v-1h-1v-1h1v1h1
		v-1h1v1h1V10.002z M50.999,10.001h-1v1h1v1h-1v1h1v1h-1v1h1v1h-1v1h1v1h-1v1h1v1h-1v1h1v1h-1v1h1v1h-1v1h1v1h-1v1h1v1h-1v1h1v1h-1
		v1h1v1h-1v1h1v1h-1v1h1v1h-1v-1h-1v-0.998H48v1h1v1h-1v-1h-1v-1h1v-1h-1v-1h1v-1h-1v-1h1v-1h-1v-1h1v-1h-1v-1h1v-1h-1v-1h1v-1h-1
		v-1h1v-1h-1v-1h1v-1h-1v-1h1v-1h-1v-1h1v-1h-1v-1h1v-1h-1v-1h1v-1h-1v-1h1v-1h-1v-1h1v1h1v0.998h0.999v-1h-1v-1h1v1h1V10.001z
		 M55,10.002h-1v1h1v1h-1v1h1v1h-1v1h1v1h-1v1h1v1h-1v1h1v1h-1v1h1v1h-1v1h1v1h-1v1h1v1h-1v1h1v1h-1v1h1v1h-1v1h1v1h-1v1h1v1h-1v1h1
		v1h-1v-1h-1v1h-1v-1h-1v-1h1v-1h-1v-1h1v-1h-1v-1h1v-1h-1v-1h1v-1h-1v-1h1v-1h-1v-1h1v-1h-1v-1h1v-1h-1v-1h1v-1h-1v-1h1v-1h-1v-1h1
		v-1h-1v-1h1v-1h-1v-1h1v-1h-1v-1h1v-1h-1v-1h1v1h1v-1h1v1h1V10.002z M58.999,10.001h-1v1h1v1h-1v1h1v1h-1v1h1v1h-1v1h1v1h-1v1h1v1
		h-1v1h1v1h-1v1h1v1h-1v1h1v1h-1v1h1v1h-1v1h1v1h-1v1h1v1h-1v1h1v1h-1v1h1v1h-1v-1h-1v-0.998H56v1h1v1h-1v-1h-1v-1h1v-1h-1v-1h1v-1
		h-1v-1h1v-1h-1v-1h1v-1h-1v-1h1v-1h-1v-1h1v-1h-1v-1h1v-1h-1v-1h1v-1h-1v-1h1v-1h-1v-1h1v-1h-1v-1h1v-1h-1v-1h1v-1h-1v-1h1v-1h-1
		v-1h1v1h1v0.998h0.999v-1h-1v-1h1v1h1V10.001z M63,10.002h-1v1h1v1h-1v1h1v1h-1v1h1v1h-1v1h1v1h-1v1h1v1h-1v1h1v1h-1v1h1v1h-1v1h1
		v1h-1v1h1v1h-1v1h1v1h-1v1h1v1h-1v1h1v1h-1v1h1v1h-1v-1h-1v1h-1v-1h-1v-1h1v-1h-1v-1h1v-1h-1v-1h1v-1h-1v-1h1v-1h-1v-1h1v-1h-1v-1
		h1v-1h-1v-1h1v-1h-1v-1h1v-1h-1v-1h1v-1h-1v-1h1v-1h-1v-1h1v-1h-1v-1h1v-1h-1v-1h1v-1h-1v-1h1v1h1v-1h1v1h1V10.002z M66.999,10.001
		h-1v1h1v1h-1v1h1v1h-1v1h1v1h-1v1h1v1h-1v1h1v1h-1v1h1v1h-1v1h1v1h-1v1h1v1h-1v1h1v1h-1v1h1v1h-1v1h1v1h-1v1h1v1h-1v1h1v1h-1v-1h-1
		v-0.998H64v1h1v1h-1v-1h-1v-1h1v-1h-1v-1h1v-1h-1v-1h1v-1h-1v-1h1v-1h-1v-1h1v-1h-1v-1h1v-1h-1v-1h1v-1h-1v-1h1v-1h-1v-1h1v-1h-1
		v-1h1v-1h-1v-1h1v-1h-1v-1h1v-1h-1v-1h1v-1h-1v-1h1v1h1v0.998h0.999v-1h-1v-1h1v1h1V10.001z M71,10.002h-1v1h1v1h-1v1h1v1h-1v1h1v1
		h-1v1h1v1h-1v1h1v1h-1v1h1v1h-1v1h1v1h-1v1h1v1h-1v1h1v1h-1v1h1v1h-1v1h1v1h-1v1h1v1h-1v1h1v1h-1v-1h-1v1h-1v-1h-1v-1h1v-1h-1v-1h1
		v-1h-1v-1h1v-1h-1v-1h1v-1h-1v-1h1v-1h-1v-1h1v-1h-1v-1h1v-1h-1v-1h1v-1h-1v-1h1v-1h-1v-1h1v-1h-1v-1h1v-1h-1v-1h1v-1h-1v-1h1v-1
		h-1v-1h1v1h1v-1h1v1h1V10.002z M73,10.003h-1v1h1v1h-1v1h1v1h-1v1h1v1h-1v1h1v1h-1v1h1v1h-1v1h1v1h-1v1h1v1h-1v1h1v1h-1v1h1v1h-1v1
		h1v1h-1v1h1v1h-1v1h1v1h-1v1h1v1h-1v-1h-1v-1h1v-1h-1v-1h1v-1h-1v-1h1v-1h-1v-1h1v-1h-1v-1h1v-1h-1v-1h1v-1h-1v-1h1v-1h-1v-1h1v-1
		h-1v-1h1v-1h-1v-1h1v-1h-1v-1h1v-1h-1v-1h1v-1h-1v-1h1v-1h-1v-1h1v1h1V10.003z M129,34.001H79v-10h50V34.001z M129,20.001H79v-10
		h50V20.001z M182,34.001h-50v-10h50V34.001z M182,20.001h-50v-10h50V20.001z M235,34.001h-50v-10h50V34.001z M235,20.001h-50v-10
		h50V20.001z M45,28.002h-1v1h1V28.002z M53,14.002h1v-1h-1V14.002z M12.999,30h1v-1h-1V30z M32.998,26.001h-0.999v1h1v0.998h0.999
		v-1h-1V26.001z M45,14.002h-1v1h1V14.002z M45,16.002h-1v1h1V16.002z M45,34.002h1v-1h-1V34.002z M45,30.002h1v-1h-1V30.002z
		 M32.998,22.001h-0.999v1h1v0.998h0.999v-1h-1V22.001z M45,20.002h-1v1h1V20.002z M45,32.002h1v-1h-1V32.002z M45,18.002h-1v1h1
		V18.002z M45,32.002h-1v1h1V32.002z M12.999,24h-1v1h1V24z M12.999,26h-1v1h1V26z M12.999,28h-1v1h1V28z M32.998,10.001h-0.999v1h1
		v0.998h0.999v-1h-1V10.001z M69,32.002h-1v1h1V32.002z M12.999,20h-1v1h1V20z M53,20.002h1v-1h-1V20.002z M68,34.002v1h1v-1H68z
		 M12.999,22h-1v1h1V22z M12.999,30h-1v1h1V30z M12.999,34h1v-1h-1V34z M69,26.002h-1v1h1V26.002z M53,22.002h1v-1h-1V22.002z
		 M12.999,32h1v-1h-1V32z M69,28.002h-1v1h1V28.002z M12.999,32h-1v1h1V32z M32.998,12.001h-0.999v1h1v0.998h0.999v-1h-1V12.001z
		 M11.999,34v1h1v-1H11.999z M69,30.002h-1v1h1V30.002z M69,26.002h1v-1h-1V26.002z M69,24.002h1v-1h-1V24.002z M69,18.002h1v-1h-1
		V18.002z M69,28.002h1v-1h-1V28.002z M45,9.002v1h1v-1H45z M32.998,16.001h-0.999v1h1v0.998h0.999v-1h-1V16.001z M69,20.002h1v-1
		h-1V20.002z M45,14.002h1v-1h-1V14.002z M69,22.002h1v-1h-1V22.002z M45,12.002h1v-1h-1V12.002z M12.999,18h-1v1h1V18z M12.999,16
		h-1v1h1V16z M12.999,14h-1v1h1V14z M69,34.002h1v-1h-1V34.002z M69,32.002h1v-1h-1V32.002z M53,18.002h1v-1h-1V18.002z M12.999,10
		h-1v1h1V10z M12.999,12h-1v1h1V12z M69,30.002h1v-1h-1V30.002z M32.998,14.001h-0.999v1h1v0.998h0.999v-1h-1V14.001z
		 M16.998,28.001h-0.999v1h1v0.998h0.999v-1h-1V28.001z M61,22.002h-1v1h1V22.002z M36.999,24h1v-1h-1V24z M56.999,14.003H56v1h1
		v0.998h0.999v-1h-1V14.003z M24.998,30.001h-0.999v1h1v0.998h0.999v-1h-1V30.001z M24.998,32.001h-0.999v1h1v0.998h0.999v-1h-1
		V32.001z M61,24.002h-1v1h1V24.002z M36.999,22h1v-1h-1V22z M61,26.002h-1v1h1V26.002z M28.999,24h-1v1h1V24z M24.998,28.001
		h-0.999v1h1v0.998h0.999v-1h-1V28.001z M28.999,22h-1v1h1V22z M61,18.002h-1v1h1V18.002z M24.998,22.001h-0.999v1h1v0.998h0.999v-1
		h-1V22.001z M61,28.002h-1v1h1V28.002z M24.998,20.001h-0.999v1h1v0.998h0.999v-1h-1V20.001z M24.998,26.001h-0.999v1h1v0.998
		h0.999v-1h-1V26.001z M61,16.002h-1v1h1V16.002z M61,20.002h-1v1h1V20.002z M36.999,26h1v-1h-1V26z M24.998,24.001h-0.999v1h1
		v0.998h0.999v-1h-1V24.001z M61,26.002h1v-1h-1V26.002z M36.999,14h1v-1h-1V14z M61,28.002h1v-1h-1V28.002z M28.999,28h-1v1h1V28z
		 M61,30.002h1v-1h-1V30.002z M61,22.002h1v-1h-1V22.002z M53,22.002h-1v1h1V22.002z M36.999,12h1v-1h-1V12z M61,24.002h1v-1h-1
		V24.002z M60,34.002v1h1v-1H60z M28.999,26h-1v1h1V26z M36.999,16h1v-1h-1V16z M61,32.002h-1v1h1V32.002z M36.999,20h1v-1h-1V20z
		 M61,30.002h-1v1h1V30.002z M61,32.002h1v-1h-1V32.002z M56.999,16.003H56v1h1v0.998h0.999v-1h-1V16.003z M36.999,18h1v-1h-1V18z
		 M61,34.002h1v-1h-1V34.002z M24.998,14.001h-0.999v1h1v0.998h0.999v-1h-1V14.001z M36.999,24h-1v1h1V24z M36.999,20h-1v1h1V20z
		 M53,10.002h-1v1h1V10.002z M56.999,10.003H56v1h1v0.998h0.999v-1h-1V10.003z M36.999,22h-1v1h1V22z M36.999,28h-1v1h1V28z
		 M53,18.002h-1v1h1V18.002z M28.999,14h-1v1h1V14z M36.999,26h-1v1h1V26z M24.998,18.001h-0.999v1h1v0.998h0.999v-1h-1V18.001z
		 M36.999,12h-1v1h1V12z M40.999,20.001h-1v1h1V20.001z M36.999,14h-1v1h1V14z M53,12.002h-1v1h1V12.002z M53,16.002h-1v1h1V16.002z
		 M53,14.002h-1v1h1V14.002z M45,30.002h-1v1h1V30.002z M36.999,18h-1v1h1V18z M36.999,16h-1v1h1V16z M28.999,12h-1v1h1V12z
		 M24.998,12.001h-0.999v1h1v0.998h0.999v-1h-1V12.001z M53,20.002h-1v1h1V20.002z M36.999,30h1v-1h-1V30z M24.998,10.001h-0.999v1
		h1v0.998h0.999v-1h-1V10.001z M61,12.002h-1v1h1V12.002z M36.999,30h-1v1h1V30z M36.999,28h1v-1h-1V28z M24.998,16.001h-0.999v1h1
		v0.998h0.999v-1h-1V16.001z M61,14.002h-1v1h1V14.002z M28.999,30h-1v1h1V30z M28.999,18h-1v1h1V18z M35.999,34v1h1v-1H35.999z
		 M36.999,32h-1v1h1V32z M61,10.002h-1v1h1V10.002z M28.999,16h-1v1h1V16z M36.999,32h1v-1h-1V32z M28.999,20h-1v1h1V20z M36.999,34
		h1v-1h-1V34z M56.999,12.003H56v1h1v0.998h0.999v-1h-1V12.003z M28.999,10h-1v1h1V10z M61,20.002h1v-1h-1V20.002z M48.999,18.003
		H48v1h1v0.998h0.999v-1h-1V18.003z M20.999,10h-1v1h1V10z M28.999,22h1v-1h-1V22z M28.999,20h1v-1h-1V20z M48.999,22.003H48v1h1
		v0.998h0.999v-1h-1V22.003z M28.999,18h1v-1h-1V18z M48.999,20.003H48v1h1v0.998h0.999v-1h-1V20.003z M48.999,10.003H48v1h1v0.998
		h0.999v-1h-1V10.003z M48.999,12.003H48v1h1v0.998h0.999v-1h-1V12.003z M48.999,24.003H48v1h1v0.998h0.999v-1h-1V24.003z
		 M20.999,18h-1v1h1V18z M28.999,24h1v-1h-1V24z M20.999,20h-1v1h1V20z M56.999,26.003H56v1h1v0.998h0.999v-1h-1V26.003z
		 M48.999,14.003H48v1h1v0.998h0.999v-1h-1V14.003z M20.999,14h-1v1h1V14z M20.999,16h-1v1h1V16z M20.999,12h-1v1h1V12z
		 M56.999,28.003H56v1h1v0.998h0.999v-1h-1V28.003z M64.999,22.003H64v1h1v0.998h0.999v-1h-1V22.003z M56.999,30.003H56v1h1v0.998
		h0.999v-1h-1V30.003z M64.999,24.003H64v1h1v0.998h0.999v-1h-1V24.003z M40.999,16.001h-1v1h1V16.001z M48.999,30.003H48v1h1v0.998
		h0.999v-1h-1V30.003z M53,28.002h-1v1h1V28.002z M40.999,18.001h-1v1h1V18.001z M64.999,18.003H64v1h1v0.998h0.999v-1h-1V18.003z
		 M64.999,20.003H64v1h1v0.998h0.999v-1h-1V20.003z M64.999,26.003H64v1h1v0.998h0.999v-1h-1V26.003z M48.999,26.003H48v1h1v0.998
		h0.999v-1h-1V26.003z M64.999,32.003H64v1h1v0.998h0.999v-1h-1V32.003z M40.999,12.001h-1v1h1V12.001z M40.999,10.001h-1v1h1
		V10.001z M64.999,28.003H64v1h1v0.998h0.999v-1h-1V28.003z M40.999,14.001h-1v1h1V14.001z M28.999,16h1v-1h-1V16z M48.999,28.003
		H48v1h1v0.998h0.999v-1h-1V28.003z M64.999,30.003H64v1h1v0.998h0.999v-1h-1V30.003z M48.999,16.003H48v1h1v0.998h0.999v-1h-1
		V16.003z M20.999,22h1v-1h-1V22z M20.999,20h1v-1h-1V20z M61,12.002h1v-1h-1V12.002z M20.999,18h1v-1h-1V18z M61,9.002v1h1v-1H61z
		 M61,14.002h1v-1h-1V14.002z M27.999,34v1h1v-1H27.999z M20.999,26h1v-1h-1V26z M20.999,22h-1v1h1V22z M20.999,24h1v-1h-1V24z
		 M56.999,18.003H56v1h1v0.998h0.999v-1h-1V18.003z M20.999,9v1h1V9H20.999z M61,18.002h1v-1h-1V18.002z M36.999,9v1h1V9H36.999z
		 M20.999,14h1v-1h-1V14z M20.999,12h1v-1h-1V12z M28.999,32h-1v1h1V32z M20.999,16h1v-1h-1V16z M61,16.002h1v-1h-1V16.002z
		 M56.999,20.003H56v1h1v0.998h0.999v-1h-1V20.003z M28.999,28h1v-1h-1V28z M20.999,32h-1v1h1V32z M56.999,24.003H56v1h1v0.998
		h0.999v-1h-1V24.003z M20.999,30h-1v1h1V30z M20.999,28h-1v1h1V28z M53,26.002h-1v1h1V26.002z M20.999,24h-1v1h1V24z M28.999,26h1
		v-1h-1V26z M20.999,26h-1v1h1V26z M56.999,22.003H56v1h1v0.998h0.999v-1h-1V22.003z M20.999,32h1v-1h-1V32z M53,24.002h-1v1h1
		V24.002z M28.999,34h1v-1h-1V34z M20.999,30h1v-1h-1V30z M28.999,30h1v-1h-1V30z M19.999,34v1h1v-1H19.999z M20.999,28h1v-1h-1V28z
		 M20.999,34h1v-1h-1V34z M28.999,32h1v-1h-1V32z"/>
	<rect x="123" y="32.001" fill="#FFFFFF" width="4" height="1"/>
</g>
</svg>
