<?xml version="1.0" encoding="utf-8"?>
<!-- Generator: Adobe Illustrator 13.0.2, SVG Export Plug-In . SVG Version: 6.00 Build 14948)  -->
<!DOCTYPE svg PUBLIC "-//W3C//DTD SVG 1.1 Tiny//EN" "http://www.w3.org/Graphics/SVG/1.1/DTD/svg11-tiny.dtd">
<svg version="1.1" baseProfile="tiny" id="Layer_1" xmlns="http://www.w3.org/2000/svg" xmlns:xlink="http://www.w3.org/1999/xlink"
	 x="0px" y="0px" width="144.9px" height="36px" viewBox="0 0 144.9 36" xml:space="preserve">
<g>
	<path fill="#666666" d="M144.9,34.2c0,0.989-0.811,1.8-1.8,1.8H1.801C0.811,36,0,35.189,0,34.2V1.8C0,0.81,0.811,0,1.801,0h141.3
		c0.989,0,1.8,0.81,1.8,1.8V34.2z"/>
	<g>
		<polygon fill="#FFFFFF" points="9.9,9 9.9,13.5 12.601,13.5 12.601,15.3 16.201,15.3 16.201,13.5 18.9,13.5 18.9,9 		"/>
		<polygon fill="#FFFFFF" points="9.9,21.6 9.9,26.1 12.601,26.1 12.601,27.9 16.201,27.9 16.201,26.1 18.9,26.1 18.9,21.6 		"/>
		<polygon fill="#FFFFFF" points="21.601,9 21.601,13.5 24.301,13.5 24.301,15.3 27.9,15.3 27.9,13.5 30.601,13.5 30.601,9 		"/>
		<polygon fill="#FFFFFF" points="21.601,21.6 21.601,26.1 24.301,26.1 24.301,27.9 27.9,27.9 27.9,26.1 30.601,26.1 30.601,21.6 		
			"/>
		<polygon fill="#FFFFFF" points="33.301,9 33.301,13.5 36,13.5 36,15.3 39.601,15.3 39.601,13.5 42.301,13.5 42.301,9 		"/>
		<polygon fill="#FFFFFF" points="33.301,21.6 33.301,26.1 36,26.1 36,27.9 39.601,27.9 39.601,26.1 42.301,26.1 42.301,21.6 		"/>
		<polygon fill="#FFFFFF" points="45,9 45,13.5 47.701,13.5 47.701,15.3 51.301,15.3 51.301,13.5 54,13.5 54,9 		"/>
		<polygon fill="#FFFFFF" points="45,21.6 45,26.1 47.701,26.1 47.701,27.9 51.301,27.9 51.301,26.1 54,26.1 54,21.6 		"/>
		<polygon fill="#FFFFFF" points="56.701,9 56.701,13.5 59.4,13.5 59.4,15.3 63,15.3 63,13.5 65.701,13.5 65.701,9 		"/>
		<polygon fill="#FFFFFF" points="56.701,21.6 56.701,26.1 59.4,26.1 59.4,27.9 63,27.9 63,26.1 65.701,26.1 65.701,21.6 		"/>
	</g>
	<path fill="#FFFFFF" d="M137.332,25.65c0,1.485-1.215,2.699-2.701,2.699H79.731c-1.485,0-2.7-1.214-2.7-2.699v-15.3
		c0-1.486,1.215-2.701,2.7-2.701h54.899c1.486,0,2.701,1.215,2.701,2.701V25.65z"/>
	<g>
		<rect x="84.682" y="14.786" fill="#666666" width="4.821" height="1.606"/>
		<rect x="84.682" y="19.607" fill="#666666" width="4.821" height="1.606"/>
		<rect x="92.717" y="14.786" fill="#666666" width="4.821" height="1.606"/>
		<rect x="92.717" y="19.607" fill="#666666" width="4.821" height="1.606"/>
		<rect x="100.753" y="14.786" fill="#666666" width="4.819" height="1.606"/>
		<rect x="100.753" y="19.607" fill="#666666" width="4.819" height="1.606"/>
		<rect x="108.788" y="14.786" fill="#666666" width="4.821" height="1.606"/>
		<rect x="108.788" y="19.607" fill="#666666" width="4.821" height="1.606"/>
		<rect x="116.822" y="14.786" fill="#666666" width="4.822" height="1.606"/>
		<rect x="116.822" y="19.607" fill="#666666" width="4.822" height="1.606"/>
		<rect x="124.859" y="14.786" fill="#666666" width="4.822" height="1.606"/>
		<rect x="124.859" y="19.607" fill="#666666" width="4.822" height="1.606"/>
	</g>
</g>
</svg>
