<?xml version="1.0" encoding="utf-8"?>
<!-- Generator: Adobe Illustrator 13.0.2, SVG Export Plug-In . SVG Version: 6.00 Build 14948)  -->
<!DOCTYPE svg PUBLIC "-//W3C//DTD SVG 1.1 Tiny//EN" "http://www.w3.org/Graphics/SVG/1.1/DTD/svg11-tiny.dtd">
<svg version="1.1" baseProfile="tiny" id="Layer_1" xmlns="http://www.w3.org/2000/svg" xmlns:xlink="http://www.w3.org/1999/xlink"
	 x="0px" y="0px" width="148.9px" height="40.002px" viewBox="0 0 148.9 40.002" xml:space="preserve">
<g>
	<path fill="#FFFF00" d="M145.102,40.002H3.801C1.706,40.002,0,38.295,0,36.2V3.801C0,1.706,1.706,0,3.801,0h141.301
		c2.095,0,3.799,1.706,3.799,3.801V36.2C148.9,38.295,147.196,40.002,145.102,40.002L145.102,40.002z"/>
	<path fill="#666666" d="M145.101,2H3.801C2.811,2,2,2.81,2,3.8v32.401C2,37.189,2.811,38,3.801,38h141.3
		c0.989,0,1.8-0.811,1.8-1.799V3.8C146.9,2.81,146.09,2,145.101,2z M20.9,28.1h-2.699V29.9h-3.601V28.1h-2.7v-4.5h9V28.1z
		 M20.9,15.5h-2.699v1.8h-3.601v-1.8h-2.7V11h9V15.5z M32.601,28.1h-2.7V29.9h-3.6V28.1h-2.7v-4.5h9V28.1z M32.601,15.5h-2.7v1.8
		h-3.6v-1.8h-2.7V11h9V15.5z M44.301,28.1h-2.7V29.9H38V28.1h-2.699v-4.5h9V28.1z M44.301,15.5h-2.7v1.8H38v-1.8h-2.699V11h9V15.5z
		 M56,28.1h-2.699V29.9h-3.6V28.1H47v-4.5h9V28.1z M56,15.5h-2.699v1.8h-3.6v-1.8H47V11h9V15.5z M67.701,28.1H65V29.9h-3.6V28.1
		h-2.699v-4.5h9V28.1z M67.701,15.5H65v1.8h-3.6v-1.8h-2.699V11h9V15.5z M139.332,27.65c0,1.486-1.215,2.699-2.701,2.699H81.731
		c-1.485,0-2.7-1.213-2.7-2.699V12.351c0-1.486,1.215-2.701,2.7-2.701h54.899c1.486,0,2.701,1.215,2.701,2.701V27.65z"/>
	<rect x="86.682" y="16.787" fill="#666666" width="4.821" height="1.606"/>
	<rect x="86.682" y="21.607" fill="#666666" width="4.821" height="1.607"/>
	<rect x="94.717" y="16.787" fill="#666666" width="4.821" height="1.606"/>
	<rect x="94.717" y="21.607" fill="#666666" width="4.821" height="1.607"/>
	<rect x="102.753" y="16.787" fill="#666666" width="4.819" height="1.606"/>
	<rect x="102.753" y="21.607" fill="#666666" width="4.819" height="1.607"/>
	<rect x="110.788" y="16.787" fill="#666666" width="4.821" height="1.606"/>
	<rect x="110.788" y="21.607" fill="#666666" width="4.821" height="1.607"/>
	<rect x="118.822" y="16.787" fill="#666666" width="4.822" height="1.606"/>
	<rect x="118.822" y="21.607" fill="#666666" width="4.822" height="1.607"/>
	<rect x="126.859" y="16.787" fill="#666666" width="4.822" height="1.606"/>
	<rect x="126.859" y="21.607" fill="#666666" width="4.822" height="1.607"/>
</g>
</svg>
