<?xml version="1.0" encoding="utf-8"?>
<!-- Generator: Adobe Illustrator 13.0.2, SVG Export Plug-In . SVG Version: 6.00 Build 14948)  -->
<!DOCTYPE svg PUBLIC "-//W3C//DTD SVG 1.1 Tiny//EN" "http://www.w3.org/Graphics/SVG/1.1/DTD/svg11-tiny.dtd">
<svg version="1.1" baseProfile="tiny" id="Layer_1" xmlns="http://www.w3.org/2000/svg" xmlns:xlink="http://www.w3.org/1999/xlink"
	 x="0px" y="0px" width="160px" height="80px" viewBox="0 0 160 80" xml:space="preserve">
<g>
	<path fill="#666666" d="M152.451,56.201c0,0.988-0.811,1.799-1.801,1.799H9.35c-0.989,0-1.8-0.811-1.8-1.799V23.8
		c0-0.99,0.811-1.8,1.8-1.8H150.65c0.99,0,1.801,0.81,1.801,1.8V56.201z"/>
	<g>
		<polygon fill="#FFFFFF" points="17.45,31 17.45,35.5 20.15,35.5 20.15,37.3 23.75,37.3 23.75,35.5 26.45,35.5 26.45,31 		"/>
		<polygon fill="#FFFFFF" points="17.45,43.6 17.45,48.1 20.15,48.1 20.15,49.9 23.75,49.9 23.75,48.1 26.45,48.1 26.45,43.6 		"/>
		<polygon fill="#FFFFFF" points="29.15,31 29.15,35.5 31.85,35.5 31.85,37.3 35.45,37.3 35.45,35.5 38.15,35.5 38.15,31 		"/>
		<polygon fill="#FFFFFF" points="29.15,43.6 29.15,48.1 31.85,48.1 31.85,49.9 35.45,49.9 35.45,48.1 38.15,48.1 38.15,43.6 		"/>
		<polygon fill="#FFFFFF" points="40.85,31 40.85,35.5 43.55,35.5 43.55,37.3 47.15,37.3 47.15,35.5 49.85,35.5 49.85,31 		"/>
		<polygon fill="#FFFFFF" points="40.85,43.6 40.85,48.1 43.55,48.1 43.55,49.9 47.15,49.9 47.15,48.1 49.85,48.1 49.85,43.6 		"/>
		<polygon fill="#FFFFFF" points="52.55,31 52.55,35.5 55.25,35.5 55.25,37.3 58.85,37.3 58.85,35.5 61.55,35.5 61.55,31 		"/>
		<polygon fill="#FFFFFF" points="52.55,43.6 52.55,48.1 55.25,48.1 55.25,49.9 58.85,49.9 58.85,48.1 61.55,48.1 61.55,43.6 		"/>
		<polygon fill="#FFFFFF" points="64.25,31 64.25,35.5 66.95,35.5 66.95,37.3 70.55,37.3 70.55,35.5 73.25,35.5 73.25,31 		"/>
		<polygon fill="#FFFFFF" points="64.25,43.6 64.25,48.1 66.95,48.1 66.95,49.9 70.55,49.9 70.55,48.1 73.25,48.1 73.25,43.6 		"/>
	</g>
	<path fill="#FFFFFF" d="M144.881,47.65c0,1.486-1.215,2.699-2.699,2.699H87.28c-1.484,0-2.699-1.213-2.699-2.699v-15.3
		c0-1.485,1.215-2.7,2.699-2.7h54.901c1.484,0,2.699,1.215,2.699,2.7V47.65z"/>
	<g>
		<rect x="92.23" y="36.786" fill="#666666" width="4.821" height="1.607"/>
		<rect x="92.23" y="41.607" fill="#666666" width="4.821" height="1.607"/>
		<rect x="100.266" y="36.786" fill="#666666" width="4.822" height="1.607"/>
		<rect x="100.266" y="41.607" fill="#666666" width="4.822" height="1.607"/>
		<rect x="108.303" y="36.786" fill="#666666" width="4.82" height="1.607"/>
		<rect x="108.303" y="41.607" fill="#666666" width="4.82" height="1.607"/>
		<rect x="116.338" y="36.786" fill="#666666" width="4.822" height="1.607"/>
		<rect x="116.338" y="41.607" fill="#666666" width="4.822" height="1.607"/>
		<rect x="124.373" y="36.786" fill="#666666" width="4.822" height="1.607"/>
		<rect x="124.373" y="41.607" fill="#666666" width="4.822" height="1.607"/>
		<rect x="132.41" y="36.786" fill="#666666" width="4.82" height="1.607"/>
		<rect x="132.41" y="41.607" fill="#666666" width="4.82" height="1.607"/>
	</g>
</g>
</svg>
