<?xml version="1.0" encoding="utf-8"?>
<!-- Generator: Adobe Illustrator 13.0.2, SVG Export Plug-In . SVG Version: 6.00 Build 14948)  -->
<!DOCTYPE svg PUBLIC "-//W3C//DTD SVG 1.1 Tiny//EN" "http://www.w3.org/Graphics/SVG/1.1/DTD/svg11-tiny.dtd">
<svg version="1.1" baseProfile="tiny" id="Layer_1" xmlns="http://www.w3.org/2000/svg" xmlns:xlink="http://www.w3.org/1999/xlink"
	 x="0px" y="0px" width="140px" height="140px" viewBox="0 0 140 140" xml:space="preserve">
<g>
	<g>
		<path fill="#666666" d="M120,121c0,5.5-4.5,10-10,10H30c-5.5,0-10-4.5-10-10V21c0-5.5,4.5-10,10-10h80c5.5,0,10,4.5,10,10V121z"/>
		<rect x="23" y="24" fill="#FFFFFF" width="94" height="92"/>
		<circle fill="#FFFFFF" cx="70" cy="123.5" r="3.5"/>
		<rect x="107.168" y="118" fill="#FFFFFF" width="5" height="2"/>
	</g>
	<g>
		
			<rect x="81.943" y="57.321" transform="matrix(0.7071 0.7071 -0.7071 0.7071 65.281 -41.8025)" fill="#666666" width="2.315" height="1.159"/>
		
			<rect x="83.579" y="55.685" transform="matrix(0.7067 0.7075 -0.7075 0.7067 64.6625 -43.4512)" fill="#666666" width="2.316" height="1.157"/>
		<polygon fill="#666666" points="81.053,58.31 56.49,82.873 56.49,82.873 54.035,86.964 58.129,84.509 58.129,84.509 
			82.691,59.947 		"/>
	</g>
</g>
</svg>
