<?xml version="1.0" encoding="utf-8"?>
<!-- Generator: Adobe Illustrator 13.0.2, SVG Export Plug-In . SVG Version: 6.00 Build 14948)  -->
<!DOCTYPE svg PUBLIC "-//W3C//DTD SVG 1.1 Tiny//EN" "http://www.w3.org/Graphics/SVG/1.1/DTD/svg11-tiny.dtd">
<svg version="1.1" baseProfile="tiny" id="Layer_1" xmlns="http://www.w3.org/2000/svg" xmlns:xlink="http://www.w3.org/1999/xlink"
	 x="0px" y="0px" width="100px" height="120px" viewBox="0 0 100 120" xml:space="preserve">
<g>
	<g>
		<path fill="#666666" d="M100,110c0,5.5-4.5,10-10,10H10c-5.5,0-10-4.5-10-10V10C0,4.5,4.5,0,10,0h80c5.5,0,10,4.5,10,10V110z"/>
		<rect x="3" y="13" fill="#FFFFFF" width="94" height="92"/>
		<circle fill="#FFFFFF" cx="50" cy="112.5" r="3.5"/>
		<rect x="87.168" y="107" fill="#FFFFFF" width="5" height="2"/>
	</g>
	<g>
		
			<rect x="61.943" y="46.321" transform="matrix(0.7071 0.7071 -0.7071 0.7071 51.645 -30.8822)" fill="#666666" width="2.315" height="1.159"/>
		
			<rect x="63.579" y="44.685" transform="matrix(0.7067 0.7075 -0.7075 0.7067 51.0134 -32.5271)" fill="#666666" width="2.316" height="1.157"/>
		<polygon fill="#666666" points="61.053,47.31 36.49,71.873 36.49,71.873 34.035,75.964 38.129,73.509 38.129,73.509 
			62.691,48.947 		"/>
	</g>
</g>
</svg>
