<?xml version="1.0" encoding="utf-8"?>
<!-- Generator: Adobe Illustrator 13.0.2, SVG Export Plug-In . SVG Version: 6.00 Build 14948)  -->
<!DOCTYPE svg PUBLIC "-//W3C//DTD SVG 1.1 Tiny//EN" "http://www.w3.org/Graphics/SVG/1.1/DTD/svg11-tiny.dtd">
<svg version="1.1" baseProfile="tiny" id="Layer_1" xmlns="http://www.w3.org/2000/svg" xmlns:xlink="http://www.w3.org/1999/xlink"
	 x="0px" y="0px" width="103.998px" height="123.999px" viewBox="0 0 103.998 123.999" xml:space="preserve">
<g>
	<path fill="#666666" d="M92,123.999H11.998C5.382,123.999,0,118.617,0,112V12.001C0,5.384,5.382,0,11.998,0H92
		c6.617,0,11.998,5.384,11.998,12.001V112C103.998,118.617,98.617,123.999,92,123.999L92,123.999z"/>
	<path fill="#FFFFFF" d="M91.998,2H11.999c-5.5,0-10,4.5-10,10v100c0,5.5,4.5,10,10,10h79.999c5.5,0,10-4.5,10-10V12
		C101.998,6.5,97.498,2,91.998,2z M51.999,118c-1.932,0-3.5-1.566-3.5-3.5c0-1.932,1.568-3.5,3.5-3.5c1.934,0,3.5,1.568,3.5,3.5
		C55.499,116.433,53.933,118,51.999,118z M94.166,111h-5v-2h5V111z M98.998,107H4.999V15h93.999V107z"/>
	<g>
		
			<rect x="63.942" y="48.321" transform="matrix(0.7071 0.7071 -0.7071 0.7071 53.6447 -31.7099)" fill="#FFFFFF" width="2.315" height="1.159"/>
		
			<rect x="65.578" y="46.685" transform="matrix(0.7067 0.7075 -0.7075 0.7067 53.0148 -33.3548)" fill="#FFFFFF" width="2.316" height="1.157"/>
		<polygon fill="#FFFFFF" points="63.052,49.31 38.489,73.873 38.489,73.873 36.034,77.964 40.128,75.509 40.128,75.509 
			64.69,50.947 		"/>
	</g>
</g>
</svg>
