<?xml version="1.0" encoding="utf-8"?>
<!-- Generator: Adobe Illustrator 13.0.2, SVG Export Plug-In . SVG Version: 6.00 Build 14948)  -->
<!DOCTYPE svg PUBLIC "-//W3C//DTD SVG 1.1 Tiny//EN" "http://www.w3.org/Graphics/SVG/1.1/DTD/svg11-tiny.dtd">
<svg version="1.1" baseProfile="tiny" id="Layer_1" xmlns="http://www.w3.org/2000/svg" xmlns:xlink="http://www.w3.org/1999/xlink"
	 x="0px" y="0px" width="148.901px" height="97.366px" viewBox="0 0 148.901 97.366" xml:space="preserve">
<g>
	<path fill="#FFFF00" d="M145.1,57.364h-4.738V11.054c0-2.786-2.268-5.054-5.054-5.054c-2.788,0-5.056,2.268-5.056,5.054v46.311
		H81.914l36.377-36.374l1.414-1.414l-1.414-1.414C106.58,6.45,91.011,0,74.451,0C57.891,0,42.32,6.45,30.61,18.162l-1.413,1.414
		l1.413,1.414l36.376,36.374H18.648V11.054C18.648,8.268,16.38,6,13.594,6s-5.055,2.268-5.055,5.054v46.311h-4.74
		C1.703,57.364,0,59.07,0,61.166v32.398c0,2.096,1.703,3.802,3.799,3.802H145.1c2.096,0,3.802-1.706,3.802-3.802V61.166
		C148.901,59.07,147.195,57.364,145.1,57.364z"/>
	<path fill="#666666" d="M32.023,19.575l7.071,7.07c19.526-19.525,51.185-19.525,70.711,0l7.071-7.07
		C93.445-3.856,55.455-3.856,32.023,19.575z"/>
	<path fill="#666666" d="M46.166,33.718l7.071,7.07c11.716-11.715,30.711-11.715,42.427,0l7.07-7.07
		C87.113,18.097,61.787,18.097,46.166,33.718z"/>
	<path fill="#666666" d="M60.309,47.859l7.07,7.071c3.906-3.905,10.238-3.905,14.143,0l7.07-7.071
		C80.781,40.049,68.119,40.049,60.309,47.859z"/>
	<path fill="#666666" d="M145.101,59.364h-6.74v-48.31c0-1.687-1.367-3.054-3.054-3.054s-3.054,1.367-3.054,3.054v48.31H16.647
		v-48.31c0-1.687-1.367-3.054-3.054-3.054s-3.054,1.367-3.054,3.054v48.31H3.8c-0.989,0-1.8,0.811-1.8,1.801v32.4
		c0,0.988,0.811,1.799,1.8,1.799h141.301c0.989,0,1.8-0.811,1.8-1.799v-32.4C146.9,60.175,146.09,59.364,145.101,59.364z
		 M20.9,85.464h-2.7v1.801h-3.6v-1.801h-2.7v-4.5h9V85.464z M20.9,72.864h-2.7v1.801h-3.6v-1.801h-2.7v-4.5h9V72.864z
		 M32.601,85.464h-2.7v1.801H26.3v-1.801h-2.699v-4.5h9V85.464z M32.601,72.864h-2.7v1.801H26.3v-1.801h-2.699v-4.5h9V72.864z
		 M44.3,85.464h-2.699v1.801H38v-1.801h-2.7v-4.5h9V85.464z M44.3,72.864h-2.699v1.801H38v-1.801h-2.7v-4.5h9V72.864z M56,85.464
		h-2.7v1.801h-3.6v-1.801H47v-4.5h9V85.464z M56,72.864h-2.7v1.801h-3.6v-1.801H47v-4.5h9V72.864z M67.7,85.464H65v1.801h-3.6
		v-1.801h-2.7v-4.5h9V85.464z M67.7,72.864H65v1.801h-3.6v-1.801h-2.7v-4.5h9V72.864z M139.331,85.015
		c0,1.486-1.215,2.699-2.7,2.699H81.731c-1.485,0-2.7-1.213-2.7-2.699v-15.3c0-1.485,1.215-2.7,2.7-2.7h54.899
		c1.485,0,2.7,1.215,2.7,2.7V85.015z"/>
	<rect x="86.681" y="74.15" fill="#666666" width="4.822" height="1.606"/>
	<rect x="86.681" y="78.972" fill="#666666" width="4.822" height="1.607"/>
	<rect x="94.716" y="74.15" fill="#666666" width="4.822" height="1.606"/>
	<rect x="94.716" y="78.972" fill="#666666" width="4.822" height="1.607"/>
	<rect x="102.753" y="74.15" fill="#666666" width="4.819" height="1.606"/>
	<rect x="102.753" y="78.972" fill="#666666" width="4.819" height="1.607"/>
	<rect x="110.788" y="74.15" fill="#666666" width="4.821" height="1.606"/>
	<rect x="110.788" y="78.972" fill="#666666" width="4.821" height="1.607"/>
	<rect x="118.822" y="74.15" fill="#666666" width="4.822" height="1.606"/>
	<rect x="118.822" y="78.972" fill="#666666" width="4.822" height="1.607"/>
	<rect x="126.859" y="74.15" fill="#666666" width="4.821" height="1.606"/>
	<rect x="126.859" y="78.972" fill="#666666" width="4.821" height="1.607"/>
</g>
</svg>
