<?xml version="1.0" encoding="utf-8"?>
<!-- Generator: Adobe Illustrator 13.0.2, SVG Export Plug-In . SVG Version: 6.00 Build 14948)  -->
<!DOCTYPE svg PUBLIC "-//W3C//DTD SVG 1.1 Tiny//EN" "http://www.w3.org/Graphics/SVG/1.1/DTD/svg11-tiny.dtd">
<svg version="1.1" baseProfile="tiny" id="Layer_1" xmlns="http://www.w3.org/2000/svg" xmlns:xlink="http://www.w3.org/1999/xlink"
	 x="0px" y="0px" width="144.9px" height="103.916px" viewBox="0 0 144.9 103.916" xml:space="preserve">
<g>
	<path fill="#666666" d="M115.433,27.937l7.166-7.166c-27.698-27.694-72.6-27.694-100.297,0l7.165,7.166
		C53.206,4.197,91.695,4.197,115.433,27.937z"/>
	<path fill="#666666" d="M101.105,42.265l7.165-7.165c-19.784-19.782-51.858-19.782-71.641,0l7.165,7.165
		C59.622,26.437,85.278,26.437,101.105,42.265z"/>
	<path fill="#666666" d="M86.779,56.591l7.163-7.163c-11.87-11.87-31.115-11.87-42.984,0l7.164,7.163
		C66.034,48.679,78.865,48.679,86.779,56.591z"/>
	<path fill="#666666" d="M14.647,93.629c0,1.687-1.367,3.054-3.054,3.054l0,0c-1.687,0-3.054-1.367-3.054-3.054V19.606
		c0-1.687,1.367-3.054,3.054-3.054l0,0c1.687,0,3.054,1.367,3.054,3.054V93.629z"/>
	<path fill="#666666" d="M136.36,93.629c0,1.687-1.367,3.054-3.054,3.054l0,0c-1.687,0-3.054-1.367-3.054-3.054V19.606
		c0-1.687,1.367-3.054,3.054-3.054l0,0c1.687,0,3.054,1.367,3.054,3.054V93.629z"/>
	<path fill="#666666" d="M144.9,102.117c0,0.988-0.811,1.799-1.8,1.799H1.8c-0.989,0-1.8-0.811-1.8-1.799v-32.4
		c0-0.99,0.811-1.801,1.8-1.801h141.301c0.989,0,1.8,0.811,1.8,1.801V102.117z"/>
	<polygon fill="#FFFFFF" points="9.9,76.916 9.9,81.416 12.601,81.416 12.601,83.216 16.2,83.216 16.2,81.416 18.9,81.416 
		18.9,76.916 	"/>
	<polygon fill="#FFFFFF" points="9.9,89.515 9.9,94.015 12.601,94.015 12.601,95.816 16.2,95.816 16.2,94.015 18.9,94.015 
		18.9,89.515 	"/>
	<polygon fill="#FFFFFF" points="21.601,76.916 21.601,81.416 24.3,81.416 24.3,83.216 27.9,83.216 27.9,81.416 30.601,81.416 
		30.601,76.916 	"/>
	<polygon fill="#FFFFFF" points="21.601,89.515 21.601,94.015 24.3,94.015 24.3,95.816 27.9,95.816 27.9,94.015 30.601,94.015 
		30.601,89.515 	"/>
	<polygon fill="#FFFFFF" points="33.3,76.916 33.3,81.416 36,81.416 36,83.216 39.601,83.216 39.601,81.416 42.3,81.416 
		42.3,76.916 	"/>
	<polygon fill="#FFFFFF" points="33.3,89.515 33.3,94.015 36,94.015 36,95.816 39.601,95.816 39.601,94.015 42.3,94.015 
		42.3,89.515 	"/>
	<polygon fill="#FFFFFF" points="45,76.916 45,81.416 47.7,81.416 47.7,83.216 51.3,83.216 51.3,81.416 54,81.416 54,76.916 	"/>
	<polygon fill="#FFFFFF" points="45,89.515 45,94.015 47.7,94.015 47.7,95.816 51.3,95.816 51.3,94.015 54,94.015 54,89.515 	"/>
	<polygon fill="#FFFFFF" points="56.7,76.916 56.7,81.416 59.4,81.416 59.4,83.216 63,83.216 63,81.416 65.7,81.416 65.7,76.916 	
		"/>
	<polygon fill="#FFFFFF" points="56.7,89.515 56.7,94.015 59.4,94.015 59.4,95.816 63,95.816 63,94.015 65.7,94.015 65.7,89.515 	
		"/>
	<path fill="#FFFFFF" d="M137.331,93.566c0,1.486-1.215,2.699-2.7,2.699H79.731c-1.485,0-2.7-1.213-2.7-2.699v-15.3
		c0-1.485,1.215-2.7,2.7-2.7h54.899c1.485,0,2.7,1.215,2.7,2.7V93.566z"/>
	<rect x="84.681" y="82.702" fill="#666666" width="4.822" height="1.606"/>
	<rect x="84.681" y="87.523" fill="#666666" width="4.822" height="1.607"/>
	<rect x="92.716" y="82.702" fill="#666666" width="4.822" height="1.606"/>
	<rect x="92.716" y="87.523" fill="#666666" width="4.822" height="1.607"/>
	<rect x="100.753" y="82.702" fill="#666666" width="4.819" height="1.606"/>
	<rect x="100.753" y="87.523" fill="#666666" width="4.819" height="1.607"/>
	<rect x="108.788" y="82.702" fill="#666666" width="4.821" height="1.606"/>
	<rect x="108.788" y="87.523" fill="#666666" width="4.821" height="1.607"/>
	<rect x="116.822" y="82.702" fill="#666666" width="4.822" height="1.606"/>
	<rect x="116.822" y="87.523" fill="#666666" width="4.822" height="1.607"/>
	<rect x="124.859" y="82.702" fill="#666666" width="4.821" height="1.606"/>
	<rect x="124.859" y="87.523" fill="#666666" width="4.821" height="1.607"/>
</g>
</svg>
