<?xml version="1.0" encoding="utf-8"?>
<!-- Generator: Adobe Illustrator 13.0.2, SVG Export Plug-In . SVG Version: 6.00 Build 14948)  -->
<!DOCTYPE svg PUBLIC "-//W3C//DTD SVG 1.1 Tiny//EN" "http://www.w3.org/Graphics/SVG/1.1/DTD/svg11-tiny.dtd">
<svg version="1.1" baseProfile="tiny" id="Layer_1" xmlns="http://www.w3.org/2000/svg" xmlns:xlink="http://www.w3.org/1999/xlink"
	 x="0px" y="0px" width="144.9px" height="93.363px" viewBox="0 0 144.9 93.363" xml:space="preserve">
<g>
	<path fill="#FFFFFF" d="M33.56,21.109L72.45,60l38.892-38.891C89.862-0.37,55.039-0.37,33.56,21.109z"/>
	<path fill="#666666" d="M30.023,17.574l7.071,7.07c19.526-19.525,51.185-19.525,70.711,0l7.071-7.07
		C91.445-5.858,53.455-5.858,30.023,17.574z"/>
	<path fill="#666666" d="M44.166,31.716l7.071,7.07c11.716-11.715,30.711-11.715,42.427,0l7.07-7.07
		C85.113,16.095,59.787,16.095,44.166,31.716z"/>
	<path fill="#666666" d="M58.309,45.858l7.07,7.071c3.906-3.905,10.238-3.905,14.143,0l7.07-7.071
		C78.781,38.047,66.119,38.047,58.309,45.858z"/>
</g>
<g>
	<path fill="#666666" d="M14.647,83.077c0,1.687-1.367,3.054-3.054,3.054l0,0c-1.687,0-3.054-1.367-3.054-3.054V9.053
		C8.54,7.367,9.907,6,11.594,6l0,0c1.687,0,3.054,1.367,3.054,3.054V83.077z"/>
	<path fill="#666666" d="M136.36,83.077c0,1.687-1.367,3.054-3.054,3.054l0,0c-1.687,0-3.054-1.367-3.054-3.054V9.053
		c0-1.687,1.367-3.054,3.054-3.054l0,0c1.687,0,3.054,1.367,3.054,3.054V83.077z"/>
	<path fill="#666666" d="M144.9,91.564c0,0.988-0.811,1.799-1.8,1.799H1.8c-0.989,0-1.8-0.811-1.8-1.799v-32.4
		c0-0.99,0.811-1.801,1.8-1.801h141.301c0.989,0,1.8,0.811,1.8,1.801V91.564z"/>
	<polygon fill="#FFFFFF" points="9.9,66.363 9.9,70.863 12.601,70.863 12.601,72.664 16.2,72.664 16.2,70.863 18.9,70.863 
		18.9,66.363 	"/>
	<polygon fill="#FFFFFF" points="9.9,78.962 9.9,83.462 12.601,83.462 12.601,85.263 16.2,85.263 16.2,83.462 18.9,83.462 
		18.9,78.962 	"/>
	<polygon fill="#FFFFFF" points="21.601,66.363 21.601,70.863 24.3,70.863 24.3,72.664 27.9,72.664 27.9,70.863 30.601,70.863 
		30.601,66.363 	"/>
	<polygon fill="#FFFFFF" points="21.601,78.962 21.601,83.462 24.3,83.462 24.3,85.263 27.9,85.263 27.9,83.462 30.601,83.462 
		30.601,78.962 	"/>
	<polygon fill="#FFFFFF" points="33.3,66.363 33.3,70.863 36,70.863 36,72.664 39.601,72.664 39.601,70.863 42.3,70.863 
		42.3,66.363 	"/>
	<polygon fill="#FFFFFF" points="33.3,78.962 33.3,83.462 36,83.462 36,85.263 39.601,85.263 39.601,83.462 42.3,83.462 
		42.3,78.962 	"/>
	<polygon fill="#FFFFFF" points="45,66.363 45,70.863 47.7,70.863 47.7,72.664 51.3,72.664 51.3,70.863 54,70.863 54,66.363 	"/>
	<polygon fill="#FFFFFF" points="45,78.962 45,83.462 47.7,83.462 47.7,85.263 51.3,85.263 51.3,83.462 54,83.462 54,78.962 	"/>
	<polygon fill="#FFFFFF" points="56.7,66.363 56.7,70.863 59.4,70.863 59.4,72.664 63,72.664 63,70.863 65.7,70.863 65.7,66.363 	
		"/>
	<polygon fill="#FFFFFF" points="56.7,78.962 56.7,83.462 59.4,83.462 59.4,85.263 63,85.263 63,83.462 65.7,83.462 65.7,78.962 	
		"/>
	<path fill="#FFFFFF" d="M137.331,83.013c0,1.486-1.215,2.699-2.7,2.699H79.731c-1.485,0-2.7-1.213-2.7-2.699v-15.3
		c0-1.485,1.215-2.7,2.7-2.7h54.899c1.485,0,2.7,1.215,2.7,2.7V83.013z"/>
	<rect x="84.681" y="72.149" fill="#666666" width="4.822" height="1.606"/>
	<rect x="84.681" y="76.97" fill="#666666" width="4.822" height="1.607"/>
	<rect x="92.716" y="72.149" fill="#666666" width="4.822" height="1.606"/>
	<rect x="92.716" y="76.97" fill="#666666" width="4.822" height="1.607"/>
	<rect x="100.753" y="72.149" fill="#666666" width="4.819" height="1.606"/>
	<rect x="100.753" y="76.97" fill="#666666" width="4.819" height="1.607"/>
	<rect x="108.788" y="72.149" fill="#666666" width="4.821" height="1.606"/>
	<rect x="108.788" y="76.97" fill="#666666" width="4.821" height="1.607"/>
	<rect x="116.822" y="72.149" fill="#666666" width="4.822" height="1.606"/>
	<rect x="116.822" y="76.97" fill="#666666" width="4.822" height="1.607"/>
	<rect x="124.859" y="72.149" fill="#666666" width="4.821" height="1.606"/>
	<rect x="124.859" y="76.97" fill="#666666" width="4.821" height="1.607"/>
</g>
</svg>
