<?xml version="1.0" encoding="utf-8"?>
<!-- Generator: Adobe Illustrator 13.0.2, SVG Export Plug-In . SVG Version: 6.00 Build 14948)  -->
<!DOCTYPE svg PUBLIC "-//W3C//DTD SVG 1.1 Tiny//EN" "http://www.w3.org/Graphics/SVG/1.1/DTD/svg11-tiny.dtd">
<svg version="1.1" baseProfile="tiny" id="Layer_2" xmlns="http://www.w3.org/2000/svg" xmlns:xlink="http://www.w3.org/1999/xlink"
	 x="0px" y="0px" width="90px" height="90px" viewBox="0 0 90 90" xml:space="preserve">
<g>
	<circle fill="#666666" cx="45" cy="45" r="44"/>
	<g>
		<path fill="#FFFFFF" d="M74.698,38.302l4.95-4.951c-19.137-19.135-50.161-19.135-69.297,0l4.95,4.951
			C31.704,21.9,58.297,21.9,74.698,38.302z"/>
		<path fill="#FFFFFF" d="M64.799,48.202l4.95-4.95c-13.669-13.668-35.83-13.668-49.498,0l4.95,4.95
			C36.137,37.266,53.863,37.266,64.799,48.202z"/>
		<path fill="#FFFFFF" d="M54.9,58.1l4.949-4.949c-8.201-8.201-21.498-8.201-29.699,0l4.95,4.949
			C40.567,52.633,49.433,52.633,54.9,58.1z"/>
		<circle fill="#FFFFFF" cx="45" cy="68" r="7"/>
	</g>
</g>
</svg>
