<?xml version="1.0" encoding="utf-8"?>
<!-- Generator: Adobe Illustrator 13.0.2, SVG Export Plug-In . SVG Version: 6.00 Build 14948)  -->
<!DOCTYPE svg PUBLIC "-//W3C//DTD SVG 1.1 Tiny//EN" "http://www.w3.org/Graphics/SVG/1.1/DTD/svg11-tiny.dtd">
<svg version="1.1" baseProfile="tiny" id="Layer_1" xmlns="http://www.w3.org/2000/svg" xmlns:xlink="http://www.w3.org/1999/xlink"
	 x="0px" y="0px" width="160px" height="160px" viewBox="0 0 160 160" xml:space="preserve">
<g>
	<path fill="#666666" d="M122.983,55.979l7.166-7.166c-27.699-27.694-72.601-27.694-100.297,0l7.165,7.166
		C60.755,32.239,99.245,32.239,122.983,55.979z"/>
	<path fill="#666666" d="M108.655,70.307l7.166-7.165c-19.785-19.782-51.858-19.782-71.642,0l7.165,7.165
		C67.171,54.479,92.829,54.479,108.655,70.307z"/>
	<path fill="#666666" d="M94.329,84.633l7.164-7.163c-11.871-11.87-31.116-11.87-42.985,0l7.164,7.163
		C73.584,76.721,86.415,76.721,94.329,84.633z"/>
	<path fill="#666666" d="M22.197,121.671c0,1.687-1.367,3.054-3.054,3.054l0,0c-1.687,0-3.054-1.367-3.054-3.054V47.648
		c0-1.687,1.367-3.054,3.054-3.054l0,0c1.687,0,3.054,1.367,3.054,3.054V121.671z"/>
	<path fill="#666666" d="M143.911,121.671c0,1.687-1.367,3.054-3.055,3.054l0,0c-1.686,0-3.053-1.367-3.053-3.054V47.648
		c0-1.687,1.367-3.054,3.053-3.054l0,0c1.688,0,3.055,1.367,3.055,3.054V121.671z"/>
	<path fill="#666666" d="M152.45,130.159c0,0.988-0.811,1.799-1.799,1.799H9.35c-0.989,0-1.8-0.811-1.8-1.799v-32.4
		c0-0.99,0.811-1.801,1.8-1.801h141.301c0.988,0,1.799,0.811,1.799,1.801V130.159z"/>
	<polygon fill="#FFFFFF" points="17.45,104.958 17.45,109.458 20.15,109.458 20.15,111.258 23.75,111.258 23.75,109.458 
		26.45,109.458 26.45,104.958 	"/>
	<polygon fill="#FFFFFF" points="17.45,117.557 17.45,122.057 20.15,122.057 20.15,123.858 23.75,123.858 23.75,122.057 
		26.45,122.057 26.45,117.557 	"/>
	<polygon fill="#FFFFFF" points="29.15,104.958 29.15,109.458 31.85,109.458 31.85,111.258 35.45,111.258 35.45,109.458 
		38.15,109.458 38.15,104.958 	"/>
	<polygon fill="#FFFFFF" points="29.15,117.557 29.15,122.057 31.85,122.057 31.85,123.858 35.45,123.858 35.45,122.057 
		38.15,122.057 38.15,117.557 	"/>
	<polygon fill="#FFFFFF" points="40.85,104.958 40.85,109.458 43.55,109.458 43.55,111.258 47.15,111.258 47.15,109.458 
		49.85,109.458 49.85,104.958 	"/>
	<polygon fill="#FFFFFF" points="40.85,117.557 40.85,122.057 43.55,122.057 43.55,123.858 47.15,123.858 47.15,122.057 
		49.85,122.057 49.85,117.557 	"/>
	<polygon fill="#FFFFFF" points="52.55,104.958 52.55,109.458 55.25,109.458 55.25,111.258 58.85,111.258 58.85,109.458 
		61.55,109.458 61.55,104.958 	"/>
	<polygon fill="#FFFFFF" points="52.55,117.557 52.55,122.057 55.25,122.057 55.25,123.858 58.85,123.858 58.85,122.057 
		61.55,122.057 61.55,117.557 	"/>
	<polygon fill="#FFFFFF" points="64.25,104.958 64.25,109.458 66.95,109.458 66.95,111.258 70.55,111.258 70.55,109.458 
		73.25,109.458 73.25,104.958 	"/>
	<polygon fill="#FFFFFF" points="64.25,117.557 64.25,122.057 66.95,122.057 66.95,123.858 70.55,123.858 70.55,122.057 
		73.25,122.057 73.25,117.557 	"/>
	<path fill="#FFFFFF" d="M144.881,121.608c0,1.486-1.215,2.699-2.701,2.699H87.282c-1.486,0-2.701-1.213-2.701-2.699v-15.3
		c0-1.485,1.215-2.7,2.701-2.7h54.898c1.486,0,2.701,1.215,2.701,2.7V121.608z"/>
	<rect x="92.231" y="110.744" fill="#666666" width="4.822" height="1.606"/>
	<rect x="92.231" y="115.565" fill="#666666" width="4.822" height="1.607"/>
	<rect x="100.266" y="110.744" fill="#666666" width="4.822" height="1.606"/>
	<rect x="100.266" y="115.565" fill="#666666" width="4.822" height="1.607"/>
	<rect x="108.303" y="110.744" fill="#666666" width="4.818" height="1.606"/>
	<rect x="108.303" y="115.565" fill="#666666" width="4.818" height="1.607"/>
	<rect x="116.338" y="110.744" fill="#666666" width="4.82" height="1.606"/>
	<rect x="116.338" y="115.565" fill="#666666" width="4.82" height="1.607"/>
	<rect x="124.372" y="110.744" fill="#666666" width="4.822" height="1.606"/>
	<rect x="124.372" y="115.565" fill="#666666" width="4.822" height="1.607"/>
	<rect x="132.409" y="110.744" fill="#666666" width="4.822" height="1.606"/>
	<rect x="132.409" y="115.565" fill="#666666" width="4.822" height="1.607"/>
</g>
</svg>
