<?xml version="1.0" encoding="utf-8"?>
<!-- Generator: Adobe Illustrator 13.0.2, SVG Export Plug-In . SVG Version: 6.00 Build 14948)  -->
<!DOCTYPE svg PUBLIC "-//W3C//DTD SVG 1.1 Tiny//EN" "http://www.w3.org/Graphics/SVG/1.1/DTD/svg11-tiny.dtd">
<svg version="1.1" baseProfile="tiny" id="Layer_1" xmlns="http://www.w3.org/2000/svg" xmlns:xlink="http://www.w3.org/1999/xlink"
	 x="0px" y="0px" width="240px" height="200px" viewBox="0 0 240 200" xml:space="preserve">
<g>
	<rect x="142.271" y="120.664" fill="#666666" width="24.621" height="24.62"/>
	<path fill="#666666" d="M71.062,163.697c0,0.968-0.792,1.759-1.759,1.759H7.199c-0.967,0-1.758-0.791-1.758-1.759V37.943
		c0-0.967,0.791-1.759,1.758-1.759h62.104c0.967,0,1.759,0.792,1.759,1.759V163.697z"/>
	<path fill="#FFFFFF" d="M62.531,154.721c0,1.935-1.582,3.518-3.518,3.518H17.49c-1.936,0-3.518-1.583-3.518-3.518V94.823
		c0-1.934,1.582-3.517,3.518-3.517h41.523c1.936,0,3.518,1.583,3.518,3.517V154.721z"/>
	<circle fill="#666666" cx="38.252" cy="105.086" r="6.562"/>
	<rect x="14.629" y="43.403" fill="#FFFFFF" width="47.246" height="15.092"/>
	<path fill="#666666" d="M234.56,122.566c0,5.239-4.287,9.525-9.527,9.525H84.131c-5.24,0-9.526-4.286-9.526-9.525V41.38
		c0-5.239,4.286-9.526,9.526-9.526h140.901c5.24,0,9.527,4.287,9.527,9.526V122.566z"/>
	<rect x="76.789" y="43.499" fill="#FFFFFF" width="155.586" height="77.162"/>
	<circle fill="#FFFFFF" cx="154.582" cy="127.201" r="2.821"/>
	<path fill="#666666" d="M224.985,161.58l-17.562-18.055H101.739L84.18,161.58c-3.381,3.47-3.808,6.566-0.641,6.566h142.086
		C228.793,168.146,228.367,165.05,224.985,161.58z"/>
	<polygon fill="#FFFFFF" points="187.672,147.137 101.075,147.137 87.699,161.58 195.944,161.58 	"/>
	<polygon fill="#FFFFFF" points="220.586,161.58 199.463,161.58 190.488,147.137 207.384,147.137 	"/>
	<rect x="56.008" y="56.146" fill="#666666" width="4" height="1"/>
</g>
</svg>
