<?xml version="1.0" encoding="utf-8"?>
<!-- Generator: Adobe Illustrator 13.0.2, SVG Export Plug-In . SVG Version: 6.00 Build 14948)  -->
<!DOCTYPE svg PUBLIC "-//W3C//DTD SVG 1.1 Tiny//EN" "http://www.w3.org/Graphics/SVG/1.1/DTD/svg11-tiny.dtd">
<svg version="1.1" baseProfile="tiny" id="Layer_1" xmlns="http://www.w3.org/2000/svg" xmlns:xlink="http://www.w3.org/1999/xlink"
	 x="0px" y="0px" width="233.12px" height="140.293px" viewBox="0 0 233.12 140.293" xml:space="preserve">
<g>
	<path fill="#666666" d="M222.184,140.293H80.098c-2.645,0-3.582-1.55-3.864-2.216c-0.871-2.069,0.22-4.819,3.072-7.745
		l17.557-18.055l0.589-0.605h0.846h38.534v-7.433H80.689c-6.355,0-11.527-5.171-11.527-11.526V11.527
		C69.162,5.171,74.334,0,80.689,0h140.903c6.355,0,11.527,5.171,11.527,11.527v81.187c0,6.355-5.172,11.526-11.527,11.526h-56.141
		v7.433h38.531h0.846l0.586,0.605l17.562,18.057c2.854,2.924,3.943,5.674,3.07,7.741
		C225.768,138.744,224.829,140.293,222.184,140.293L222.184,140.293z"/>
	<path fill="#666666" d="M65.862,137.603H3.759c-2.073,0-3.759-1.686-3.759-3.759V8.09c0-2.073,1.686-3.759,3.759-3.759h62.104
		c2.072,0,3.759,1.686,3.759,3.759v125.754C69.621,135.917,67.935,137.603,65.862,137.603L65.862,137.603z"/>
	<circle fill="#FFFFFF" cx="34.811" cy="75.233" r="6.562"/>
	<path fill="#FFFFFF" d="M65.861,6.332H3.758C2.791,6.332,2,7.123,2,8.09v125.754c0,0.968,0.791,1.759,1.758,1.759h62.104
		c0.967,0,1.759-0.791,1.759-1.759V8.09C67.62,7.123,66.828,6.332,65.861,6.332z M11.188,13.55h47.246v15.092H11.188V13.55z
		 M59.09,124.868c0,1.935-1.582,3.518-3.518,3.518H14.049c-1.936,0-3.518-1.583-3.518-3.518V64.969c0-1.934,1.582-3.517,3.518-3.517
		h41.523c1.936,0,3.518,1.583,3.518,3.517V124.868z"/>
	<path fill="#FFFFFF" d="M221.59,2.001H80.689c-5.24,0-9.526,4.287-9.526,9.526v81.186c0,5.239,4.286,9.525,9.526,9.525h58.141
		v11.434H98.298l-17.56,18.055c-3.381,3.47-3.808,6.566-0.641,6.566h142.086c3.168,0,2.742-3.097-0.641-6.566l-17.561-18.055
		h-40.531v-11.434h58.139c5.24,0,9.527-4.286,9.527-9.525V11.527C231.118,6.288,226.831,2.001,221.59,2.001z M203.942,117.284
		l13.203,14.443h-21.123l-8.975-14.443H203.942z M184.231,117.284l8.271,14.443H84.258l13.376-14.443H184.231z M148.319,97.348
		c0-1.558,1.264-2.82,2.822-2.82c1.557,0,2.82,1.263,2.82,2.82s-1.264,2.82-2.82,2.82
		C149.583,100.168,148.319,98.906,148.319,97.348z M228.934,90.807H73.348V13.646h155.586V90.807z"/>
	<rect x="52.566" y="26.293" fill="#FFFFFF" width="4" height="1"/>
</g>
</svg>
