<?xml version="1.0" encoding="utf-8"?>
<!-- Generator: Adobe Illustrator 13.0.2, SVG Export Plug-In . SVG Version: 6.00 Build 14948)  -->
<!DOCTYPE svg PUBLIC "-//W3C//DTD SVG 1.1 Tiny//EN" "http://www.w3.org/Graphics/SVG/1.1/DTD/svg11-tiny.dtd">
<svg version="1.1" baseProfile="tiny" id="Layer_1" xmlns="http://www.w3.org/2000/svg" xmlns:xlink="http://www.w3.org/1999/xlink"
	 x="0px" y="0px" width="229.118px" height="136.292px" viewBox="0 0 229.118 136.292" xml:space="preserve">
<g>
	<rect x="136.83" y="88.81" fill="#666666" width="24.621" height="24.62"/>
	<path fill="#666666" d="M65.62,131.843c0,0.968-0.792,1.759-1.759,1.759H1.758c-0.967,0-1.758-0.791-1.758-1.759V6.089
		c0-0.967,0.791-1.759,1.758-1.759h62.104c0.967,0,1.759,0.792,1.759,1.759V131.843z"/>
	<path fill="#FFFFFF" d="M57.09,122.867c0,1.935-1.582,3.518-3.518,3.518H12.049c-1.936,0-3.518-1.583-3.518-3.518V62.969
		c0-1.934,1.582-3.517,3.518-3.517h41.523c1.936,0,3.518,1.583,3.518,3.517V122.867z"/>
	<circle fill="#666666" cx="32.811" cy="73.232" r="6.562"/>
	<rect x="9.188" y="11.549" fill="#FFFFFF" width="47.246" height="15.092"/>
	<path fill="#666666" d="M229.118,90.712c0,5.239-4.287,9.525-9.527,9.525H78.689c-5.24,0-9.526-4.286-9.526-9.525V9.526
		C69.163,4.287,73.449,0,78.689,0h140.901c5.24,0,9.527,4.287,9.527,9.526V90.712z"/>
	<rect x="71.348" y="11.645" fill="#FFFFFF" width="155.586" height="77.162"/>
	<circle fill="#FFFFFF" cx="149.14" cy="95.347" r="2.821"/>
	<path fill="#666666" d="M219.544,129.726l-17.562-18.055H96.298l-17.56,18.055c-3.381,3.47-3.808,6.566-0.641,6.566h142.086
		C223.352,136.292,222.926,133.196,219.544,129.726z"/>
	<polygon fill="#FFFFFF" points="182.23,115.283 95.634,115.283 82.258,129.726 190.503,129.726 	"/>
	<polygon fill="#FFFFFF" points="215.145,129.726 194.021,129.726 185.047,115.283 201.942,115.283 	"/>
	<rect x="50.566" y="24.292" fill="#666666" width="4" height="1"/>
</g>
</svg>
