<?xml version="1.0" encoding="utf-8"?>
<!-- Generator: Adobe Illustrator 13.0.2, SVG Export Plug-In . SVG Version: 6.00 Build 14948)  -->
<!DOCTYPE svg PUBLIC "-//W3C//DTD SVG 1.1 Tiny//EN" "http://www.w3.org/Graphics/SVG/1.1/DTD/svg11-tiny.dtd">
<svg version="1.1" baseProfile="tiny" id="Layer_1" xmlns="http://www.w3.org/2000/svg" xmlns:xlink="http://www.w3.org/1999/xlink"
	 x="0px" y="0px" width="90px" height="90px" viewBox="0 0 90 90" xml:space="preserve">
<polygon points="68,89.001 66.999,89.001 53,89.001 51.999,89.001 51.999,88.001 51.999,74 51.999,73 53,73 66.999,73 68,73 68,74 
	68,88.001 68,89.001 "/>
<rect x="53" y="74" fill="#666666" width="14" height="14"/>
<polygon points="30.001,90.001 29,90.001 2,90.001 0.999,90.001 0.999,89 0.999,7 0.999,5.999 2,5.999 29,5.999 30.001,5.999 
	30.001,7 30.001,89 30.001,90.001 "/>
<rect x="2" y="7" fill="#CCCCCC" width="27" height="82"/>
<rect x="4" y="10" fill="#999999" width="23" height="5"/>
<rect x="4" y="16" fill="#999999" width="23" height="5"/>
<ellipse fill="#999999" cx="15" cy="84" rx="7" ry="2"/>
<rect x="4" y="29" fill="#999999" width="23" height="51"/>
<polygon points="90.001,76 89,76 31,76 29.999,76 29.999,75 29.999,25 29.999,23.999 31,23.999 89,23.999 90.001,23.999 90.001,25 
	90.001,75 90.001,76 "/>
<rect x="31" y="25" fill="#999999" width="58" height="50"/>
<polygon points="76,90.001 74.999,90.001 45,90.001 44,90.001 44,89 44,86 44,85 45,85 74.999,85 76,85 76,86 76,89 76,90.001 "/>
<rect x="45" y="86" fill="#999999" width="30" height="3"/>
<rect x="33" y="28" width="54" height="40"/>
<circle cx="77.5" cy="71.333" r="0.5"/>
<circle cx="79.5" cy="71.333" r="0.5"/>
<circle cx="82" cy="71.333" r="1"/>
<rect x="5" y="66" fill="#333333" width="1" height="13"/>
<rect x="11" y="66" fill="#333333" width="1" height="13"/>
<rect x="9" y="66" fill="#333333" width="1" height="13"/>
<rect x="7" y="66" fill="#333333" width="1" height="13"/>
<rect x="13" y="66" fill="#333333" width="1" height="13"/>
<rect x="15" y="66" fill="#333333" width="1" height="13"/>
<rect x="17" y="66" fill="#333333" width="1" height="13"/>
<rect x="19" y="66" fill="#333333" width="1" height="13"/>
<rect x="21" y="66" fill="#333333" width="1" height="13"/>
<rect x="23" y="66" fill="#333333" width="1" height="13"/>
<rect x="25" y="66" fill="#333333" width="1" height="13"/>
<path d="M15,34.001c-1.657,0-3,1.343-3,3s1.343,3,3,3s3-1.343,3-3S16.657,34.001,15,34.001z M15,39.001c-1.104,0-2-0.896-2-2
	s0.896-2,2-2s2,0.896,2,2S16.104,39.001,15,39.001z"/>
<path d="M15.5,37.001c0,0.276-0.224,0.5-0.5,0.5l0,0c-0.276,0-0.5-0.224-0.5-0.5v-4c0-0.276,0.224-0.5,0.5-0.5l0,0
	c0.276,0,0.5,0.224,0.5,0.5V37.001z"/>
<g>
	<path fill="#FFFFFF" d="M47.428,50v-0.93h0.76v-1.959c0-0.33-0.119-0.659-0.64-0.659c-0.27,0-0.79,0.09-1.469,0.579v2.039h0.749V50
		H44.39v-0.93h0.77v-4.348h-0.77v-0.929h1.689v2.208c0.46-0.26,0.909-0.47,1.479-0.47c1.009,0,1.318,0.61,1.379,0.739
		c0.13,0.28,0.17,0.59,0.17,0.91v1.889h0.77V50H47.428z"/>
	<path fill="#FFFFFF" d="M53.128,50.121c-1.639,0-2.479-1.089-2.479-2.269c0-1.539,1.31-2.319,2.459-2.319
		c1.259,0,2.309,0.829,2.309,2.05c0,0.209-0.02,0.559-0.03,0.659h-3.808c0.05,0.339,0.37,0.959,1.549,0.959
		c0.729,0,1.43-0.26,2.039-0.569l0.42,0.76C54.877,49.811,53.998,50.121,53.128,50.121z M54.478,47.163
		c-0.26-0.551-0.859-0.7-1.419-0.7c-0.58,0-1.209,0.271-1.41,0.85h2.869L54.478,47.163z"/>
	<path fill="#FFFFFF" d="M56.909,50v-0.93h1.649v-4.348h-1.579v-0.929h2.509v5.277h1.659V50H56.909z"/>
	<path fill="#FFFFFF" d="M62.909,50v-0.93h1.649v-4.348h-1.579v-0.929h2.509v5.277h1.659V50H62.909z"/>
	<path fill="#FFFFFF" d="M71.059,50.121c-1.09,0-2.619-0.59-2.619-2.278c0-1.529,1.27-2.319,2.569-2.319
		c1.719,0,2.538,1.169,2.538,2.299C73.547,49.441,72.208,50.121,71.059,50.121z M70.979,46.453c-0.89,0-1.6,0.529-1.6,1.379
		c0,1.1,1.069,1.359,1.659,1.359c0.78,0,1.579-0.42,1.579-1.39C72.617,47.202,72.168,46.453,70.979,46.453z"/>
</g>
</svg>
