<?xml version="1.0" encoding="utf-8"?>
<!-- Generator: Adobe Illustrator 13.0.2, SVG Export Plug-In . SVG Version: 6.00 Build 14948)  -->
<!DOCTYPE svg PUBLIC "-//W3C//DTD SVG 1.1 Tiny//EN" "http://www.w3.org/Graphics/SVG/1.1/DTD/svg11-tiny.dtd">
<svg version="1.1" baseProfile="tiny" id="Layer_1" xmlns="http://www.w3.org/2000/svg" xmlns:xlink="http://www.w3.org/1999/xlink"
	 x="0px" y="0px" width="160px" height="160px" viewBox="0 0 160 160" xml:space="preserve">
<polygon fill="#FFFFFF" points="130.912,147.881 128.084,145.053 80.001,96.971 31.917,145.053 29.089,147.881 26.26,145.053 
	14.948,133.741 12.12,130.913 14.948,128.084 63.03,80 14.946,31.917 12.118,29.089 14.946,26.261 26.26,14.947 29.089,12.119 
	31.917,14.947 80.001,63.032 128.084,14.947 130.912,12.119 133.74,14.947 145.055,26.261 147.883,29.089 145.055,31.917 96.971,80 
	145.055,128.084 147.883,130.913 145.055,133.741 133.74,145.053 130.912,147.881 "/>
<polygon fill="#FF0000" points="142.227,29.089 130.912,17.775 80,68.688 29.088,17.774 17.774,29.089 68.687,80.001 
	17.775,130.913 29.088,142.225 80,91.315 130.912,142.225 142.227,130.913 91.314,80.001 "/>
</svg>
