<?xml version="1.0" encoding="utf-8"?>
<!-- Generator: Adobe Illustrator 13.0.2, SVG Export Plug-In . SVG Version: 6.00 Build 14948)  -->
<!DOCTYPE svg PUBLIC "-//W3C//DTD SVG 1.1 Tiny//EN" "http://www.w3.org/Graphics/SVG/1.1/DTD/svg11-tiny.dtd">
<svg version="1.1" baseProfile="tiny" id="Layer_1" xmlns="http://www.w3.org/2000/svg" xmlns:xlink="http://www.w3.org/1999/xlink"
	 x="0px" y="0px" width="135.765px" height="135.763px" viewBox="0 0 135.765 135.763" xml:space="preserve">
<g>
	<polygon fill="#FFFFFF" points="118.794,135.763 115.966,132.935 67.883,84.853 19.799,132.935 16.971,135.763 14.143,132.935 
		2.83,121.622 0.002,118.794 2.83,115.966 50.913,67.882 2.828,19.799 0,16.971 2.828,14.143 14.143,2.828 16.971,0 19.799,2.828 
		67.883,50.913 115.966,2.828 118.794,0 121.622,2.828 132.937,14.143 135.765,16.971 132.937,19.799 84.853,67.882 
		132.937,115.966 135.765,118.794 132.937,121.622 121.622,132.935 118.794,135.763 	"/>
	<polygon fill="#FF0000" points="130.108,16.97 118.795,5.656 67.883,56.568 16.971,5.655 5.657,16.97 56.569,67.882 5.658,118.794 
		16.971,130.106 67.883,79.195 118.795,130.106 130.108,118.793 79.196,67.882 	"/>
</g>
</svg>
